<svg width="65" height="25" viewBox="0 0 65 25" fill="none" xmlns="http://www.w3.org/2000/svg">
<g clip-path="url(#clip0_48_155)">
<path d="M10.1328 5.5223C10.8631 5.27773 11.6435 5.14569 12.4567 5.14569C16.0013 5.14569 18.9606 7.6724 19.6378 11.0311L24.6623 10.0026C23.5097 4.2957 18.4837 0 12.4567 0C11.0754 0 9.74937 0.225813 8.50781 0.64218L10.1336 5.52305L10.1328 5.5223Z" fill="#EEC17D"/>
<path d="M4.20382 21.8649L7.60111 18.0096C6.08448 16.6607 5.1277 14.6929 5.1277 12.5C5.1277 10.3072 6.08298 8.34161 7.59887 6.99498L4.20008 3.13965C1.62502 5.42929 0 8.77523 0 12.5C0 16.2248 1.62577 19.5745 4.20382 21.8649Z" fill="#EEC17D"/>
<path d="M19.6364 13.9763C18.9562 17.3328 15.9999 19.855 12.4568 19.855C11.6436 19.855 10.861 19.7237 10.1307 19.4769L8.50342 24.3592C9.74498 24.7749 11.074 24.9999 12.4568 24.9999C18.4778 24.9999 23.5031 20.7117 24.6602 15.0094L19.6364 13.9756V13.9763Z" fill="#EEC17D"/>
<path d="M29.0559 18.1725C28.8915 17.9047 28.668 17.4771 28.5327 17.162C27.7374 15.3082 27.6992 13.3899 28.3712 11.5482C29.1097 9.52859 30.521 7.98241 32.3441 7.19469C34.6366 6.20441 37.172 6.39947 39.3689 7.70783C40.7644 8.51131 41.7541 9.75216 42.5053 11.5069C42.601 11.7312 42.6847 11.9713 42.7669 12.1753L29.0552 18.1725H29.0559ZM33.6342 10.17C32.0062 10.8722 31.1668 12.4049 31.3395 14.2017L38.2357 11.2226C37.0495 9.82418 35.5067 9.36055 33.6342 10.1693V10.17ZM39.096 16.6511C39.096 16.6511 39.0938 16.6533 39.0923 16.6548L38.9495 16.5581C38.5384 17.2288 37.8963 17.7712 37.0861 18.1238C35.5448 18.7967 34.1163 18.6234 33.0901 17.7201L32.9959 17.8642C32.9959 17.8642 32.9944 17.8612 32.9929 17.8612L31.2438 20.4877C31.6781 20.7907 32.1445 21.0473 32.6341 21.2521C34.5663 22.0579 36.5442 22.0203 38.4921 21.1704C39.9011 20.5574 41.0066 19.6227 41.7623 18.4388L39.0975 16.6503L39.096 16.6511Z" fill="#EEC17D"/>
<path d="M47.5605 3.32471V17.929L49.8231 18.8496L48.5375 21.8601L46.0401 20.8166C45.4795 20.5728 45.0983 20.2007 44.809 19.7791C44.5332 19.3499 44.3262 18.7618 44.3262 17.9688V3.32471H47.5598H47.5605Z" fill="#EEC17D"/>
<path d="M53.4208 14.2092C53.4223 12.9654 53.9687 11.8505 54.835 11.0928L52.5141 8.49561C50.9399 9.8925 49.9488 11.9331 49.9465 14.2062C49.9443 16.4808 50.934 18.5237 52.5067 19.9236L54.8246 17.3233C53.9627 16.5619 53.4193 15.4501 53.4201 14.2092H53.4208Z" fill="#EEC17D"/>
<path d="M57.5455 18.3537C57.0888 18.3522 56.6485 18.2764 56.2382 18.1391L55.1296 21.4468C55.8868 21.7019 56.6986 21.8414 57.5425 21.8422C61.2179 21.8459 64.2863 19.2284 64.9971 15.7497L61.5901 15.0513C61.2029 16.9373 59.539 18.3552 57.5462 18.3529L57.5455 18.3537Z" fill="#EEC17D"/>
<path d="M57.5552 6.58252C56.7127 6.58177 55.9017 6.71906 55.1445 6.97188L56.2433 10.2826C56.6552 10.146 57.0947 10.071 57.5514 10.071C59.5494 10.0733 61.2141 11.4986 61.5923 13.3899L65 12.6967C64.2989 9.21276 61.2335 6.58627 57.5552 6.58327V6.58252Z" fill="#EEC17D"/>
</g>
<defs>
<clipPath id="clip0_48_155">
<rect width="65" height="25" fill="white"/>
</clipPath>
</defs>
</svg>
