<svg width="76" height="25" viewBox="0 0 76 25" fill="none" xmlns="http://www.w3.org/2000/svg">
<g clip-path="url(#clip0_47_4)">
<path d="M32.9455 24.5999H26.7476L30.6272 0.431641H36.8252L32.9455 24.5999Z" fill="#EEC17D"/>
<path d="M21.5273 0.431641L15.6132 17.0503L14.9193 13.4675L12.8375 2.60694C12.8375 2.60694 12.5852 0.431641 9.88836 0.431641H0.110396L0 0.831513C0 0.831513 2.99647 1.45531 6.48184 3.59863L11.8755 24.5839H18.3416L28.1984 0.431641H21.5273Z" fill="#EEC17D"/>
<path d="M70.3067 24.5999H76L71.0322 0.431641H66.0486C63.746 0.431641 63.1783 2.23906 63.1783 2.23906L53.9365 24.5999H60.4026L61.6958 21.017H69.5813L70.3067 24.5999ZM63.4779 16.0426L66.7425 7.00554L68.5719 16.0426H63.4779Z" fill="#EEC17D"/>
<path d="M54.4253 6.23789L55.3085 1.03955C55.3085 1.03955 52.5801 -0.0161133 49.7256 -0.0161133C46.6502 -0.0161133 39.3325 1.34345 39.3325 7.98133C39.3325 14.2193 47.9119 14.2993 47.9119 17.5783C47.9119 20.8572 40.2157 20.2654 37.6766 18.2021L36.7461 23.6243C36.7461 23.6243 39.5218 24.9839 43.7484 24.9839C47.975 24.9839 54.3622 22.7606 54.3622 16.7145C54.3622 10.6685 45.704 9.85273 45.704 7.1176C45.704 4.38248 51.7442 4.73437 54.3937 6.22189L54.4253 6.23789Z" fill="#EEC17D"/>
<path d="M14.9193 13.4675L12.8375 2.60694C12.8375 2.60694 12.5852 0.431641 9.88836 0.431641H0.110396L0 0.831513C0 0.831513 4.69973 1.8232 9.21021 5.51801C13.5157 9.05288 14.9193 13.4675 14.9193 13.4675Z" fill="#EEC17D"/>
</g>
<defs>
<clipPath id="clip0_47_4">
<rect width="76" height="25" fill="white"/>
</clipPath>
</defs>
</svg>
