<svg width="54" height="54" viewBox="0 0 54 54" fill="none" xmlns="http://www.w3.org/2000/svg">
<g clip-path="url(#clip0_42_192)">
<path d="M45.4106 8.75293H9.36206V44.8015H45.4106V8.75293Z" fill="white"/>
<path d="M26.9837 0C12.0836 0 0 12.0836 0 26.9837C0 41.8838 12.0836 53.9674 26.9837 53.9674C41.8838 53.9674 53.9674 41.8838 53.9674 26.9837C53.9674 12.0836 41.8838 0 26.9837 0ZM27.556 42.6943H27.5497C24.8471 42.6933 22.1909 42.0155 19.832 40.7296L11.271 42.9747L13.5625 34.6076C12.149 32.1591 11.4059 29.3817 11.4069 26.5368C11.4112 17.6353 18.6556 10.3929 27.5571 10.3929C31.8766 10.395 35.9326 12.0763 38.9809 15.1277C42.0303 18.1792 43.7083 22.2363 43.7073 26.5494C43.703 35.4519 36.4575 42.6943 27.5571 42.6943H27.556Z" fill="#E1B87F"/>
<path d="M27.5613 13.1196C20.1565 13.1196 14.1348 19.1393 14.1316 26.5377C14.1316 29.0727 14.841 31.5423 16.1838 33.6789L16.5032 34.1869L15.1466 39.1389L20.2272 37.8065L20.7173 38.0975C22.778 39.3202 25.1401 39.9674 27.5497 39.9684H27.5549C34.9533 39.9684 40.9751 33.9487 40.9783 26.5493C40.9793 22.9634 39.5848 19.5926 37.0498 17.0555C34.5148 14.5184 31.145 13.1217 27.5602 13.1196H27.5613ZM35.4561 32.3065C35.1198 33.2488 33.5082 34.1089 32.7324 34.2249C32.0368 34.3282 31.1577 34.3714 30.1911 34.0647C29.6051 33.8781 28.8535 33.6304 27.8901 33.2151C23.8426 31.4675 21.199 27.3936 20.9966 27.1237C20.7942 26.8539 19.3491 24.9366 19.3491 22.9508C19.3491 20.9649 20.3916 19.9889 20.7616 19.5852C21.1315 19.1815 21.569 19.0803 21.8378 19.0803C22.1065 19.0803 22.3764 19.0824 22.6114 19.094C22.8591 19.1066 23.1922 19.0002 23.519 19.7865C23.8552 20.5939 24.6626 22.5797 24.7627 22.7811C24.8639 22.9834 24.9303 23.2185 24.7965 23.4883C24.6616 23.7571 24.2146 24.3389 23.7877 24.8681C23.6086 25.0905 23.3756 25.2876 23.6107 25.6913C23.8457 26.095 24.6563 27.4157 25.8558 28.4856C27.3968 29.8601 28.6975 30.2859 29.1012 30.4883C29.5039 30.6896 29.74 30.6559 29.975 30.3871C30.2101 30.1183 30.9838 29.2087 31.2525 28.805C31.5213 28.4013 31.7912 28.4687 32.1601 28.6036C32.53 28.7375 34.5138 29.7146 34.9175 29.9159C35.3212 30.1183 35.59 30.2195 35.6911 30.3871C35.7923 30.5557 35.7923 31.3631 35.4561 32.3055V32.3065Z" fill="#E1B87F"/>
</g>
<defs>
<clipPath id="clip0_42_192">
<rect width="53.9674" height="53.9674" fill="white"/>
</clipPath>
</defs>
</svg>
