<svg width="55" height="54" viewBox="0 0 55 54" fill="none" xmlns="http://www.w3.org/2000/svg">
<g clip-path="url(#clip0_42_178)">
<path d="M45.2471 8.8584H9.30396V43.8529H45.2471V8.8584Z" fill="white"/>
<path d="M32.4066 26.9837C32.4066 29.836 30.094 32.1485 27.2418 32.1485C24.3895 32.1485 22.0769 29.836 22.0769 26.9837C22.0769 24.1314 24.3895 21.8188 27.2418 21.8188C30.094 21.8188 32.4066 24.1314 32.4066 26.9837Z" fill="#E1B87F"/>
<path d="M39.32 17.8451C39.0713 17.1726 38.676 16.5633 38.1606 16.0637C37.661 15.5494 37.0517 15.153 36.3792 14.9043C35.8332 14.6924 35.0132 14.4394 33.5027 14.3709C31.869 14.2961 31.3788 14.2803 27.2417 14.2803C23.1045 14.2803 22.6144 14.2961 20.9806 14.3709C19.4702 14.4405 18.649 14.6924 18.1041 14.9043C17.4306 15.153 16.8224 15.5483 16.3228 16.0637C15.8084 16.5633 15.4121 17.1726 15.1633 17.8451C14.9514 18.3911 14.6985 19.2111 14.63 20.7226C14.5551 22.3564 14.5393 22.8465 14.5393 26.9837C14.5393 31.1208 14.5551 31.611 14.63 33.2448C14.6985 34.7552 14.9514 35.5753 15.1633 36.1213C15.4121 36.7948 15.8073 37.403 16.3228 37.9026C16.8224 38.417 17.4316 38.8133 18.1041 39.0621C18.6501 39.275 19.4702 39.5269 20.9817 39.5954C22.6154 39.6702 23.1045 39.6861 27.2427 39.6861C31.3809 39.6861 31.8711 39.6702 33.5038 39.5954C35.0142 39.5269 35.8353 39.2739 36.3813 39.0621C37.7326 38.5403 38.8004 37.4725 39.3221 36.1213C39.534 35.5753 39.787 34.7552 39.8555 33.2448C39.9303 31.611 39.9461 31.1208 39.9461 26.9837C39.9461 22.8465 39.9303 22.3564 39.8555 20.7226C39.787 19.2122 39.534 18.3911 39.3221 17.8451H39.32ZM27.2417 34.9397C22.8473 34.9397 19.2846 31.378 19.2846 26.9837C19.2846 22.5894 22.8473 19.0277 27.2417 19.0277C31.636 19.0277 35.1976 22.5894 35.1976 26.9837C35.1976 31.378 31.635 34.9397 27.2417 34.9397ZM35.5128 20.5719C34.4862 20.5719 33.6535 19.7392 33.6535 18.7126C33.6535 17.6859 34.4862 16.8532 35.5128 16.8532C36.5395 16.8532 37.3721 17.6859 37.3721 18.7126C37.3721 19.7392 36.5395 20.5719 35.5128 20.5719Z" fill="#E1B87F"/>
<path d="M27.2418 0C12.3417 0 0.258057 12.0836 0.258057 26.9837C0.258057 41.8838 12.3417 53.9674 27.2418 53.9674C42.1418 53.9674 54.2254 41.8838 54.2254 26.9837C54.2254 12.0836 42.1418 0 27.2418 0ZM42.6425 33.3723C42.5676 35.0219 42.3052 36.1476 41.9226 37.1332C41.1173 39.2149 39.4719 40.8603 37.3912 41.6645C36.4057 42.0471 35.2789 42.3096 33.6304 42.3844C31.9776 42.4593 31.4506 42.4782 27.2418 42.4782C23.0329 42.4782 22.5059 42.4603 20.8532 42.3844C19.2046 42.3096 18.0778 42.0471 17.0923 41.6645C16.0583 41.2756 15.1212 40.6653 14.3476 39.8768C13.5591 39.1032 12.9499 38.1661 12.5609 37.1321C12.1783 36.1466 11.9159 35.0198 11.841 33.3712C11.7651 31.7185 11.7472 31.1904 11.7472 26.9826C11.7472 22.7749 11.7651 22.2468 11.841 20.594C11.9159 18.9445 12.1783 17.8187 12.5609 16.8332C12.9499 15.7992 13.5602 14.8621 14.3486 14.0884C15.1223 13.3 16.0593 12.6897 17.0934 12.3008C18.0789 11.9181 19.2057 11.6557 20.8542 11.5809C22.507 11.506 23.034 11.487 27.2428 11.487C31.4516 11.487 31.9787 11.505 33.6314 11.5809C35.281 11.6557 36.4067 11.9182 37.3923 12.2997C38.4263 12.6887 39.3633 13.299 40.137 14.0874C40.9254 14.8611 41.5357 15.7981 41.9236 16.8321C42.3073 17.8177 42.5687 18.9445 42.6446 20.593C42.7194 22.2457 42.7374 22.7728 42.7374 26.9816C42.7374 31.1904 42.7194 31.7174 42.6435 33.3702L42.6425 33.3723Z" fill="#E1B87F"/>
</g>
<defs>
<clipPath id="clip0_42_178">
<rect width="53.9674" height="53.9674" fill="white" transform="translate(0.258057)"/>
</clipPath>
</defs>
</svg>
