<svg width="54" height="54" viewBox="0 0 54 54" fill="none" xmlns="http://www.w3.org/2000/svg">
<g clip-path="url(#clip0_42_201)">
<path d="M27.0164 0C12.1132 0 0.0327148 12.0805 0.0327148 26.9837C0.0327148 41.8869 12.1132 53.9674 27.0164 53.9674C41.9196 53.9674 54.0001 41.8859 54.0001 26.9837C54.0001 12.0815 41.9196 0 27.0164 0Z" fill="#E1B87F"/>
<path d="M40.52 21.0221C40.52 28.8779 36.152 34.7479 29.7149 34.7479C27.5509 34.7479 25.5187 33.579 24.822 32.2498C24.822 32.2498 23.6583 36.8645 23.4138 37.7541C22.5473 40.9015 19.9955 44.0499 19.7984 44.3082C19.6603 44.4873 19.3546 44.4315 19.323 44.1933C19.2671 43.7917 18.6178 39.8221 19.3841 36.582C19.7689 34.9566 21.9592 25.6683 21.9592 25.6683C21.9592 25.6683 21.3204 24.3898 21.3204 22.4998C21.3204 19.5316 23.0406 17.316 25.1825 17.316C27.0039 17.316 27.8829 18.6821 27.8829 20.3211C27.8829 22.1531 26.7172 24.8915 26.1153 27.4275C25.6125 29.5525 27.1809 31.2864 29.2753 31.2864C33.0699 31.2864 35.625 26.4125 35.625 20.6384C35.625 16.2504 32.6704 12.9628 27.2916 12.9628C21.2182 12.9628 17.432 17.4931 17.432 22.5536C17.432 24.2991 17.9485 25.5302 18.7538 26.481C19.1227 26.9195 19.1754 27.0945 19.0405 27.5972C18.9425 27.9662 18.7254 28.8516 18.6305 29.2047C18.4977 29.7127 18.0855 29.893 17.6291 29.7053C14.8317 28.5638 13.5278 25.4976 13.5278 22.054C13.5278 16.3653 18.3259 9.54346 27.8408 9.54346C35.489 9.54873 40.52 15.0804 40.52 21.02V21.0221Z" fill="white"/>
</g>
<defs>
<clipPath id="clip0_42_201">
<rect width="53.9674" height="53.9674" fill="white" transform="translate(0.0327148)"/>
</clipPath>
</defs>
</svg>
