<svg width="55" height="54" viewBox="0 0 55 54" fill="none" xmlns="http://www.w3.org/2000/svg">
<g clip-path="url(#clip0_42_188)">
<path d="M45.9742 10.7554H9.39868V42.2715H45.9742V10.7554Z" fill="white"/>
<path d="M27.7581 0C12.8581 0 0.774414 12.0836 0.774414 26.9837C0.774414 41.8838 12.8581 53.9674 27.7581 53.9674C42.6582 53.9674 54.7418 41.8838 54.7418 26.9837C54.7418 12.0836 42.6582 0 27.7581 0ZM19.917 40.7918H13.345V21.0209H19.917V40.7918ZM16.6316 18.3205H16.5883C14.3833 18.3205 12.9571 16.8026 12.9571 14.9053C12.9571 13.008 14.4275 11.4892 16.6748 11.4892C18.922 11.4892 20.306 12.9648 20.3492 14.9053C20.3492 16.8026 18.9231 18.3205 16.6316 18.3205ZM43.6131 40.7918H37.0422V30.2144C37.0422 27.556 36.0904 25.7431 33.7124 25.7431C31.8974 25.7431 30.8159 26.9658 30.3405 28.1463C30.1666 28.569 30.1245 29.1593 30.1245 29.7495V40.7907H23.5535C23.5535 40.7907 23.6399 22.874 23.5535 21.0199H30.1245V23.8194C30.9983 22.4724 32.5604 20.5561 36.0472 20.5561C40.3709 20.5561 43.6131 23.382 43.6131 29.4544V40.7907V40.7918Z" fill="#E1B87F"/>
</g>
<defs>
<clipPath id="clip0_42_188">
<rect width="53.9674" height="53.9674" fill="white" transform="translate(0.774414)"/>
</clipPath>
</defs>
</svg>
