<svg width="46" height="35" viewBox="0 0 46 35" fill="none" xmlns="http://www.w3.org/2000/svg">
<g clip-path="url(#clip0_49_165)">
<path fill-rule="evenodd" clip-rule="evenodd" d="M3.16431 0H5.3544V20.8975H3.16431V0Z" fill="#EEC17D"/>
<path fill-rule="evenodd" clip-rule="evenodd" d="M6.04688 0H6.72323V20.8975H6.04688V0Z" fill="#EEC17D"/>
<path fill-rule="evenodd" clip-rule="evenodd" d="M7.31519 0H8.53101V20.8975H7.31519V0Z" fill="#EEC17D"/>
<path fill-rule="evenodd" clip-rule="evenodd" d="M9.70239 0H10.3828V20.8975H9.70239V0Z" fill="#EEC17D"/>
<path fill-rule="evenodd" clip-rule="evenodd" d="M10.6768 0H11.2001V20.8975H10.6768V0Z" fill="#EEC17D"/>
<path fill-rule="evenodd" clip-rule="evenodd" d="M1.49756 0H2.17794V20.8975H1.49756V0Z" fill="#EEC17D"/>
<path fill-rule="evenodd" clip-rule="evenodd" d="M0 0H1.21582V20.8975H0V0Z" fill="#EEC17D"/>
<path fill-rule="evenodd" clip-rule="evenodd" d="M14.8274 0H17.0215V20.8975H14.8274V0Z" fill="#EEC17D"/>
<path fill-rule="evenodd" clip-rule="evenodd" d="M17.71 0H18.3903V20.8975H17.71V0Z" fill="#EEC17D"/>
<path fill-rule="evenodd" clip-rule="evenodd" d="M18.9822 0H20.198V20.8975H18.9822V0Z" fill="#EEC17D"/>
<path fill-rule="evenodd" clip-rule="evenodd" d="M21.3696 0H22.046V20.8975H21.3696V0Z" fill="#EEC17D"/>
<path fill-rule="evenodd" clip-rule="evenodd" d="M22.3438 0H22.8671V20.8975H22.3438V0Z" fill="#EEC17D"/>
<path fill-rule="evenodd" clip-rule="evenodd" d="M13.1648 0H13.8411V20.8975H13.1648V0Z" fill="#EEC17D"/>
<path fill-rule="evenodd" clip-rule="evenodd" d="M11.667 0H12.8828V20.8975H11.667V0Z" fill="#EEC17D"/>
<path fill-rule="evenodd" clip-rule="evenodd" d="M23.7288 0H24.9406V20.8975H23.7288V0Z" fill="#EEC17D"/>
<path fill-rule="evenodd" clip-rule="evenodd" d="M26.1121 0H26.7924V20.8975H26.1121V0Z" fill="#EEC17D"/>
<path fill-rule="evenodd" clip-rule="evenodd" d="M27.0903 0H27.6097V20.8975H27.0903V0Z" fill="#EEC17D"/>
<path fill-rule="evenodd" clip-rule="evenodd" d="M29.5742 0H30.2546V20.8975H29.5742V0Z" fill="#EEC17D"/>
<path fill-rule="evenodd" clip-rule="evenodd" d="M28.0767 0H29.2925V20.8975H28.0767V0Z" fill="#EEC17D"/>
<path fill-rule="evenodd" clip-rule="evenodd" d="M31.1565 0H31.8369V20.8975H31.1565V0Z" fill="#EEC17D"/>
<path fill-rule="evenodd" clip-rule="evenodd" d="M32.1309 0H32.6542V20.8975H32.1309V0Z" fill="#EEC17D"/>
<path fill-rule="evenodd" clip-rule="evenodd" d="M34.6147 0H35.2951V20.8975H34.6147V0Z" fill="#EEC17D"/>
<path fill-rule="evenodd" clip-rule="evenodd" d="M33.1172 0H34.333V20.8975H33.1172V0Z" fill="#EEC17D"/>
<path fill-rule="evenodd" clip-rule="evenodd" d="M35.887 0H38.0771V20.8975H35.887V0Z" fill="#EEC17D"/>
<path fill-rule="evenodd" clip-rule="evenodd" d="M38.7695 0H39.4459V20.8975H38.7695V0Z" fill="#EEC17D"/>
<path fill-rule="evenodd" clip-rule="evenodd" d="M40.0376 0H41.2534V20.8975H40.0376V0Z" fill="#EEC17D"/>
<path fill-rule="evenodd" clip-rule="evenodd" d="M42.425 0H43.1054V20.8975H42.425V0Z" fill="#EEC17D"/>
<path fill-rule="evenodd" clip-rule="evenodd" d="M43.3992 0H43.9225V20.8975H43.3992V0Z" fill="#EEC17D"/>
<path fill-rule="evenodd" clip-rule="evenodd" d="M44.7842 0H46V20.8975H44.7842V0Z" fill="#EEC17D"/>
<path d="M0.225342 34.8115V22.624H4.71423C5.62811 22.624 6.36082 22.747 6.9164 22.9931C7.46795 23.2391 7.89872 23.6205 8.21274 24.1331C8.52676 24.6457 8.68377 25.1788 8.68377 25.7406C8.68377 26.2614 8.54286 26.7494 8.2691 27.2087C7.99534 27.668 7.57665 28.0411 7.01704 28.3241C7.74171 28.5414 8.29728 28.9105 8.68377 29.4313C9.07428 29.9521 9.26753 30.5672 9.26753 31.2766C9.26753 31.8507 9.14675 32.3797 8.90922 32.8718C8.67169 33.3639 8.38183 33.7412 8.03157 34.0077C7.68132 34.2702 7.24652 34.4711 6.72315 34.6106C6.19576 34.7459 5.55161 34.8156 4.79072 34.8156H0.225342V34.8115ZM1.81155 27.7459H4.40021C5.10071 27.7459 5.60798 27.6967 5.90992 27.6023C6.31251 27.4793 6.61848 27.2743 6.81978 26.9913C7.0251 26.7084 7.12574 26.3516 7.12574 25.9251C7.12574 25.5192 7.02912 25.1624 6.8399 24.8548C6.65069 24.5473 6.37692 24.334 6.02265 24.2192C5.66837 24.1044 5.06045 24.047 4.20294 24.047H1.81155V27.7418V27.7459ZM1.81155 33.3803H4.79072C5.30201 33.3803 5.66434 33.3598 5.86966 33.3188C6.23199 33.2532 6.53796 33.1425 6.78354 32.9867C7.02912 32.8308 7.23042 32.6053 7.38743 32.3059C7.54444 32.0066 7.62496 31.6662 7.62496 31.2766C7.62496 30.8214 7.51223 30.4237 7.27873 30.0874C7.04925 29.7511 6.7312 29.5133 6.32459 29.378C5.922 29.2427 5.33422 29.1729 4.57332 29.1729H1.8035V33.3762L1.81155 33.3803Z" fill="#EEC17D"/>
<path d="M10.7048 30.3947C10.7048 28.7626 11.1517 27.5529 12.0455 26.7696C12.7903 26.1176 13.7001 25.7896 14.771 25.7896C15.9586 25.7896 16.9369 26.1873 17.6938 26.9829C18.4467 27.7743 18.8291 28.8733 18.8291 30.2717C18.8291 31.4076 18.66 32.2975 18.3259 32.9454C17.9917 33.5933 17.5046 34.1018 16.8645 34.4586C16.2284 34.8194 15.5279 34.9958 14.771 34.9958C13.5552 34.9958 12.5769 34.6021 11.8281 33.8106C11.0792 33.0192 10.7048 31.8792 10.7048 30.3906V30.3947ZM12.2105 30.3947C12.2105 31.5224 12.4521 32.3713 12.9392 32.929C13.4263 33.4908 14.0383 33.7696 14.775 33.7696C15.5118 33.7696 16.1116 33.4867 16.5988 32.9249C17.0819 32.359 17.3274 31.5019 17.3274 30.3455C17.3274 29.2547 17.0819 28.4304 16.5947 27.8727C16.1076 27.3109 15.4997 27.0321 14.775 27.0321C14.0504 27.0321 13.4263 27.3109 12.9392 27.8686C12.4561 28.4263 12.2105 29.2711 12.2105 30.3988V30.3947Z" fill="#EEC17D"/>
<path d="M20.5161 34.8115V22.624H21.9896V34.8115H20.5161Z" fill="#EEC17D"/>
<path d="M30.1823 31.953L31.7041 32.158C31.4666 33.0561 31.0237 33.7573 30.3796 34.2535C29.7314 34.7497 28.9101 34.9999 27.9037 34.9999C26.6395 34.9999 25.6371 34.6021 24.8963 33.8065C24.1555 33.0151 23.7852 31.8997 23.7852 30.4685C23.7852 29.0374 24.1596 27.8358 24.9084 27.0198C25.6572 26.1996 26.6315 25.7896 27.8231 25.7896C29.0148 25.7896 29.9247 26.1914 30.6574 26.9911C31.3901 27.7948 31.7564 28.9225 31.7564 30.3783C31.7564 30.4644 31.7564 30.5997 31.7484 30.7761H25.2868C25.3432 31.7439 25.6089 32.4861 26.096 32.9987C26.5791 33.5113 27.183 33.7696 27.9037 33.7696C28.4431 33.7696 28.9021 33.6261 29.2805 33.335C29.663 33.0438 29.9649 32.5845 30.1863 31.9489L30.1823 31.953ZM25.3673 29.5499H30.1984C30.134 28.8077 29.9488 28.25 29.6428 27.8768C29.1758 27.3027 28.572 27.0116 27.8272 27.0116C27.1548 27.0116 26.5872 27.2412 26.1282 27.7005C25.6733 28.1598 25.4197 28.7749 25.3673 29.5459V29.5499Z" fill="#EEC17D"/>
<path d="M36.7526 33.4745L36.9539 34.7949C36.5432 34.8811 36.1729 34.9303 35.8468 34.9303C35.3153 34.9303 34.9007 34.8442 34.6068 34.6719C34.3129 34.4997 34.1076 34.2741 33.9868 33.9953C33.866 33.7123 33.8097 33.1259 33.8097 32.2238V27.1347H32.7227V25.9783H33.8097V23.7926L35.2791 22.8945V25.9783H36.7486V27.1347H35.2791V32.3099C35.2791 32.7364 35.3033 33.0152 35.3556 33.1341C35.4039 33.2572 35.4885 33.3515 35.6052 33.4253C35.722 33.495 35.891 33.5319 36.1084 33.5319C36.2695 33.5319 36.4829 33.5114 36.7486 33.4704L36.7526 33.4745Z" fill="#EEC17D"/>
<path d="M37.6504 30.3947C37.6504 28.7626 38.0973 27.5529 38.991 26.7696C39.7358 26.1176 40.6457 25.7896 41.7166 25.7896C42.9042 25.7896 43.8825 26.1873 44.6394 26.9829C45.3922 27.7743 45.7747 28.8733 45.7747 30.2717C45.7747 31.4076 45.6056 32.2975 45.2714 32.9454C44.9373 33.5933 44.4501 34.1018 43.81 34.4586C43.1739 34.8194 42.4734 34.9958 41.7166 34.9958C40.5007 34.9958 39.5224 34.6021 38.7736 33.8106C38.0248 33.0192 37.6504 31.8792 37.6504 30.3906V30.3947ZM39.1561 30.3947C39.1561 31.5224 39.3976 32.3713 39.8848 32.929C40.3719 33.4908 40.9838 33.7696 41.7206 33.7696C42.4573 33.7696 43.0572 33.4867 43.5443 32.9249C44.0274 32.359 44.273 31.5019 44.273 30.3455C44.273 29.2547 44.0274 28.4304 43.5403 27.8727C43.0532 27.3109 42.4452 27.0321 41.7206 27.0321C40.9959 27.0321 40.3719 27.3109 39.8848 27.8686C39.4017 28.4263 39.1561 29.2711 39.1561 30.3988V30.3947Z" fill="#EEC17D"/>
</g>
<defs>
<clipPath id="clip0_49_165">
<rect width="46" height="35" fill="white"/>
</clipPath>
</defs>
</svg>
