<svg width="55" height="54" viewBox="0 0 55 54" fill="none" xmlns="http://www.w3.org/2000/svg">
<g clip-path="url(#clip0_42_197)">
<path d="M27.5001 53.9485C42.3923 53.9485 54.4649 41.876 54.4649 26.9838C54.4649 12.0916 42.3923 0.019043 27.5001 0.019043C12.6079 0.019043 0.5354 12.0916 0.5354 26.9838C0.5354 41.876 12.6079 53.9485 27.5001 53.9485Z" fill="white"/>
<path d="M54.4837 26.9837C54.4837 12.0794 42.4043 0 27.5001 0C12.5958 0 0.516357 12.0794 0.516357 26.9837C0.516357 41.888 12.5958 53.9674 27.5001 53.9674C27.6582 53.9674 27.8163 53.9674 27.9744 53.9569V32.9602H22.1771V26.2037H27.9744V21.2286C27.9744 15.4629 31.4949 12.3219 36.6387 12.3219C39.1052 12.3219 41.2238 12.501 41.8351 12.5854V18.6145H38.2935C35.5003 18.6145 34.9522 19.9426 34.9522 21.8926V26.1932H41.6454L40.7705 32.9496H34.9522V52.9239C46.2305 49.6879 54.4837 39.3055 54.4837 26.9837Z" fill="#E1B87F"/>
</g>
<defs>
<clipPath id="clip0_42_197">
<rect width="53.9674" height="53.9674" fill="white" transform="translate(0.516357)"/>
</clipPath>
</defs>
</svg>
