<svg width="76" height="27" viewBox="0 0 76 27" fill="none" xmlns="http://www.w3.org/2000/svg">
<g clip-path="url(#clip0_47_94)">
<path d="M31.2738 25.6932C31.0103 25.6932 30.8022 25.4847 30.8022 25.2205V9.73236C30.8022 6.61804 33.3263 4.10156 36.419 4.10156H40.9818C44.0745 4.10156 46.5847 6.64585 46.5847 9.73236V13.0274C46.5847 16.1417 44.0606 18.6582 40.9679 18.6582H34.519C34.2555 18.6582 34.0475 18.4497 34.0475 18.1855C34.0475 17.9213 34.2555 17.7128 34.519 17.7128H40.9679C43.5475 17.7128 45.6417 15.6134 45.6417 13.0274V9.73236C45.6417 7.16026 43.5475 5.06088 40.9818 5.06088H36.419C33.8395 5.06088 31.7453 7.16026 31.7453 9.73236V25.2205C31.7453 25.4847 31.5373 25.6932 31.2738 25.6932Z" fill="#EEC17D"/>
<path d="M51.4666 18.7277C51.2031 18.7277 50.9951 18.5192 50.9951 18.255V6.68756C50.9951 5.78385 50.26 5.04698 49.3586 5.04698H47.3753C47.1118 5.04698 46.9038 4.83843 46.9038 4.57427C46.9038 4.31011 47.1118 4.10156 47.3753 4.10156H49.3586C50.787 4.10156 51.952 5.26943 51.952 6.70146V18.2689C51.952 18.5331 51.744 18.7416 51.4804 18.7416L51.4666 18.7277Z" fill="#EEC17D"/>
<path d="M51.0506 2.78064L50.1491 1.87693C49.9272 1.65448 49.9272 1.293 50.1491 1.07055L51.0506 0.166838C51.2724 -0.0556128 51.633 -0.0556128 51.8549 0.166838L52.7564 1.07055C52.9783 1.293 52.9783 1.65448 52.7564 1.87693L51.8549 2.78064C51.633 3.00309 51.2724 3.00309 51.0506 2.78064Z" fill="#EEC17D"/>
<path d="M65.5847 11.1919C65.0716 11.1919 64.5584 10.9973 64.1701 10.608L59.5796 6.00604C58.9555 5.3804 58.1095 5.03282 57.2219 5.03282H55.2665C55.003 5.03282 54.7949 4.82427 54.7949 4.56011C54.7949 4.29595 55.003 4.0874 55.2665 4.0874H57.2219C58.3592 4.0874 59.4409 4.5323 60.2453 5.33869L64.8358 9.94065C65.238 10.3438 65.9037 10.3438 66.3197 9.94065L70.8964 5.35259C71.7008 4.54621 72.7825 4.10131 73.9197 4.10131H75.5146C75.7781 4.10131 75.9862 4.30985 75.9862 4.57401C75.9862 4.83817 75.7781 5.04672 75.5146 5.04672H73.9197C73.0322 5.04672 72.2 5.3943 71.5621 6.01995L66.9854 10.608C66.5971 10.9973 66.084 11.1919 65.5708 11.1919H65.5847Z" fill="#EEC17D"/>
<path d="M57.2219 18.6304H55.2665C55.003 18.6304 54.7949 18.4219 54.7949 18.1577C54.7949 17.8935 55.003 17.685 55.2665 17.685H57.2219C58.1095 17.685 58.9416 17.3374 59.5796 16.7118L64.1701 12.1098C64.9467 11.3312 66.2227 11.3312 66.9993 12.1098L71.5759 16.6979C72.2 17.3235 73.046 17.6711 73.9336 17.6711H75.5285C75.792 17.6711 76 17.8796 76 18.1438C76 18.408 75.792 18.6165 75.5285 18.6165H73.9336C72.7964 18.6165 71.7146 18.1716 70.9103 17.3652L66.3336 12.7772C65.9314 12.374 65.2657 12.374 64.8497 12.7772L60.2592 17.3791C59.4548 18.1855 58.373 18.6304 57.2358 18.6304H57.2219Z" fill="#EEC17D"/>
<path d="M19.5687 21.0913C18.5841 21.0913 17.6549 20.7021 16.9614 20.0069L13.203 16.2391C12.9395 15.975 12.4819 15.975 12.2184 16.2391L8.4461 20.0208C7.75267 20.716 6.82347 21.1053 5.8388 21.1053H5.10376L9.87456 25.888C11.3585 27.3756 13.7716 27.3756 15.2695 25.888L20.0541 21.0913H19.5965H19.5687Z" fill="#EEC17D"/>
<path d="M5.82503 7.74413C6.8097 7.74413 7.7389 8.13342 8.43233 8.82858L12.2046 12.6102C12.482 12.8883 12.9258 12.8883 13.1893 12.6102L16.9477 8.84248C17.6411 8.14733 18.5703 7.75804 19.555 7.75804H20.0126L15.2279 2.96143C13.744 1.47379 11.3309 1.47379 9.83306 2.96143L5.06226 7.74413H5.79729H5.82503Z" fill="#EEC17D"/>
<path d="M23.9789 11.7202L21.0943 8.82836C21.0943 8.82836 20.9556 8.87007 20.8862 8.87007H19.5687C18.8891 8.87007 18.2235 9.14813 17.7381 9.62084L13.9797 13.3886C13.6329 13.7362 13.1614 13.9169 12.7037 13.9169C12.2461 13.9169 11.7745 13.7362 11.4278 13.3886L7.65557 9.60693C7.17017 9.12032 6.50448 8.85616 5.82491 8.85616H4.21616C4.21616 8.85616 4.07747 8.84226 4.02199 8.81445L1.12345 11.7202C-0.360487 13.2079 -0.360487 15.627 1.12345 17.1286L4.02199 20.0343C4.02199 20.0343 4.14681 19.9926 4.21616 19.9926H5.82491C6.50448 19.9926 7.17017 19.7146 7.65557 19.2418L11.4278 15.4602C12.1074 14.7789 13.3001 14.7789 13.9797 15.4602L17.7381 19.2279C18.2235 19.7146 18.8891 19.9787 19.5687 19.9787H20.8862C20.9556 19.9787 21.0249 19.9926 21.0943 20.0204L23.9789 17.1286C25.4629 15.6409 25.4629 13.2218 23.9789 11.7202Z" fill="#EEC17D"/>
</g>
<defs>
<clipPath id="clip0_47_94">
<rect width="76" height="27" fill="white"/>
</clipPath>
</defs>
</svg>
