<svg width="45" height="35" viewBox="0 0 45 35" fill="none" xmlns="http://www.w3.org/2000/svg">
<g clip-path="url(#clip0_47_22)">
<path d="M8.18603 34.8074V32.4945C8.24272 31.7348 7.66449 31.0772 6.90485 31.0319C6.84817 31.0319 6.79148 31.0319 6.73479 31.0319C6.21324 30.9979 5.71438 31.2473 5.44227 31.6895C5.1815 31.2586 4.71665 31.0092 4.21778 31.0319C3.78694 31.0092 3.37878 31.2133 3.14068 31.5761V31.1226H2.33569V34.8187H3.15202V32.7892C3.08399 32.3131 3.42413 31.8822 3.88898 31.8142C3.94567 31.8142 4.00236 31.8142 4.04771 31.8142C4.58059 31.8142 4.8527 32.1657 4.8527 32.7892V34.8414H5.66903V32.7892C5.601 32.3131 5.94114 31.8822 6.41733 31.8142C6.47402 31.8142 6.51937 31.8142 6.57606 31.8142C7.12027 31.8142 7.39238 32.1657 7.39238 32.7892V34.8414H8.20871L8.18603 34.8074ZM20.1815 31.1112H18.855V29.9888H18.0386V31.1112H17.3017V31.8482H18.05V33.5489C18.05 34.4106 18.3788 34.9208 19.3312 34.9208C19.6826 34.9208 20.0341 34.8187 20.3402 34.6373L20.1135 33.9457C19.8981 34.0704 19.6486 34.1498 19.3992 34.1498C19.0137 34.1498 18.8663 33.9004 18.8663 33.5262V31.8369H20.1815V31.0999V31.1112ZM27.0409 31.0205C26.6441 31.0092 26.2699 31.2133 26.0659 31.5648V31.1112H25.2722V34.8074H26.0772V32.7326C26.0772 32.1203 26.338 31.7802 26.8482 31.7802C27.0182 31.7802 27.1883 31.8142 27.347 31.8709L27.5965 31.0999C27.4151 31.0319 27.2223 30.9979 27.0296 30.9979H27.0409V31.0205ZM16.6781 31.406C16.2246 31.1339 15.703 30.9979 15.1702 31.0205C14.2405 31.0205 13.6282 31.474 13.6282 32.1997C13.6282 32.8006 14.0817 33.1747 14.8981 33.2881L15.2835 33.3448C15.7257 33.4015 15.9298 33.5262 15.9298 33.7303C15.9298 34.0137 15.635 34.1838 15.0908 34.1838C14.6486 34.1951 14.2178 34.0591 13.8663 33.7983L13.4808 34.4219C13.9457 34.7507 14.5126 34.9208 15.0795 34.8981C16.1452 34.8981 16.7688 34.3992 16.7688 33.6963C16.7688 32.9933 16.2813 32.7099 15.4763 32.5965L15.0908 32.5398C14.7393 32.4945 14.4672 32.4264 14.4672 32.177C14.4672 31.9276 14.728 31.7462 15.1702 31.7462C15.5783 31.7462 15.9752 31.8595 16.3266 32.0636L16.6781 31.4174V31.406ZM38.1974 31.0205C37.8005 31.0092 37.4264 31.2133 37.2223 31.5648V31.1112H36.4287V34.8074H37.2337V32.7326C37.2337 32.1203 37.4944 31.7802 38.0046 31.7802C38.1747 31.7802 38.3448 31.8142 38.5035 31.8709L38.7529 31.0999C38.5715 31.0319 38.3788 30.9979 38.186 30.9979H38.1974V31.0205ZM27.8459 32.948C27.8119 33.9797 28.6169 34.8414 29.6373 34.8754C29.694 34.8754 29.7507 34.8754 29.8074 34.8754C30.2949 34.8981 30.7597 34.7394 31.1339 34.4332L30.7484 33.787C30.4763 34.0024 30.1362 34.1158 29.7847 34.1158C29.1271 34.0591 28.6509 33.4922 28.6962 32.8346C28.7416 32.2564 29.2064 31.7915 29.7847 31.7462C30.1362 31.7462 30.4763 31.8709 30.7484 32.075L31.1339 31.4287C30.7597 31.1226 30.2835 30.9638 29.8074 30.9865C28.7756 30.9298 27.9026 31.7121 27.8346 32.7439C27.8346 32.8006 27.8346 32.8573 27.8346 32.914L27.8459 32.948ZM35.3742 32.948V31.1112H34.5693V31.5648C34.2971 31.2133 33.8663 31.0092 33.4128 31.0205C32.347 31.0205 31.4854 31.8822 31.4854 32.948C31.4854 34.0137 32.347 34.8754 33.4128 34.8754C33.8663 34.8867 34.2971 34.694 34.5693 34.3312V34.7847H35.3742V32.948ZM32.381 32.948C32.4151 32.3357 32.9479 31.8595 33.5602 31.9049C34.1724 31.9502 34.6486 32.4718 34.6033 33.084C34.5693 33.6736 34.0817 34.1271 33.4922 34.1384C32.8799 34.1384 32.381 33.6509 32.3697 33.0387C32.3697 33.0047 32.3697 32.982 32.3697 32.948H32.381ZM22.6872 31.0205C21.6214 31.0319 20.7711 31.9162 20.7824 32.982C20.7937 34.0477 21.6781 34.8981 22.7439 34.8867C23.2994 34.9208 23.8436 34.7394 24.2745 34.3879L23.889 33.7983C23.5829 34.0477 23.2087 34.1838 22.8119 34.1838C22.2563 34.2292 21.7688 33.8323 21.7121 33.2768H24.4559V32.9706C24.4559 31.8142 23.7416 31.0432 22.6985 31.0432H22.6872V31.0205ZM22.6872 31.7348C23.1974 31.7348 23.6055 32.1203 23.6169 32.6305H21.6894C21.7234 32.1203 22.1543 31.7121 22.6758 31.7348H22.6872ZM42.8119 32.9593V29.626H42.0409V31.5534C41.7688 31.2019 41.338 30.9979 40.8844 31.0092C39.8187 31.0092 38.957 31.8709 38.957 32.9366C38.957 34.0024 39.8187 34.8641 40.8844 34.8641C41.338 34.8754 41.7688 34.6827 42.0409 34.3199V34.7734H42.8119V32.948V32.9593ZM44.1498 34.2632C44.1498 34.2632 44.2518 34.2632 44.2971 34.2858C44.3425 34.3085 44.3765 34.3312 44.4219 34.3652C44.4559 34.3992 44.4785 34.4332 44.5012 34.4786C44.5352 34.5693 44.5352 34.6713 44.5012 34.762C44.4785 34.8074 44.4559 34.8414 44.4219 34.8754C44.3878 34.9094 44.3425 34.9321 44.2971 34.9548C44.2518 34.9775 44.2064 34.9888 44.1498 34.9888C44.0024 34.9888 43.8663 34.8981 43.7983 34.762C43.7643 34.6713 43.7643 34.5693 43.7983 34.4786C43.821 34.4332 43.8436 34.3992 43.8776 34.3652C43.9117 34.3312 43.957 34.3085 44.0024 34.2858C44.0477 34.2632 44.1044 34.2518 44.1611 34.2632H44.1498ZM44.1498 34.9208C44.1498 34.9208 44.2291 34.9208 44.2631 34.8981C44.2971 34.8867 44.3312 34.8641 44.3538 34.8414C44.4559 34.728 44.4559 34.5693 44.3538 34.4559C44.3312 34.4332 44.2971 34.4106 44.2631 34.3992C44.2291 34.3879 44.1951 34.3765 44.1498 34.3765C44.1157 34.3765 44.0704 34.3765 44.0364 34.3992C44.0024 34.4106 43.9683 34.4332 43.9457 34.4559C43.8436 34.5693 43.8436 34.728 43.9457 34.8414C43.9683 34.8641 44.0024 34.8867 44.0364 34.8981C44.0704 34.9094 44.1157 34.9208 44.1611 34.9208H44.1498ZM44.1724 34.4559C44.1724 34.4559 44.2405 34.4559 44.2745 34.4899C44.2971 34.5126 44.3085 34.5353 44.3085 34.5693C44.3085 34.592 44.3085 34.626 44.2858 34.6373C44.2631 34.66 44.2405 34.6713 44.2064 34.6713L44.3198 34.796H44.2291L44.1271 34.6713H44.0931V34.796H44.025V34.4559H44.1838H44.1724ZM44.0931 34.5239V34.6146H44.1724C44.1724 34.6146 44.2064 34.6146 44.2178 34.6146C44.2178 34.6146 44.2178 34.592 44.2178 34.5806C44.2178 34.5806 44.2178 34.5579 44.2178 34.5466C44.2064 34.5466 44.1838 34.5466 44.1724 34.5466L44.0931 34.5239ZM39.8414 32.9593C39.8754 32.3471 40.4083 31.8709 41.0205 31.9162C41.6327 31.9616 42.1089 32.4831 42.0636 33.0954C42.0296 33.6849 41.542 34.1385 40.9525 34.1498C40.3402 34.1498 39.8414 33.6623 39.83 33.05C39.83 33.016 39.83 32.9933 39.83 32.9593H39.8414ZM12.7212 32.9593V31.1112H11.9162V31.5648C11.6441 31.2133 11.2132 31.0092 10.7597 31.0205C9.69397 31.0205 8.83229 31.8822 8.83229 32.948C8.83229 34.0137 9.69397 34.8754 10.7597 34.8754C11.2132 34.8867 11.6441 34.694 11.9162 34.3312V34.7847H12.7212V32.9593ZM9.72798 32.9593C9.762 32.3471 10.2949 31.8709 10.9071 31.9162C11.5194 31.9616 11.9956 32.4831 11.9502 33.0954C11.9162 33.6849 11.4287 34.1385 10.8391 34.1498C10.2269 34.1611 9.71665 33.6736 9.70531 33.0614C9.70531 33.0273 9.70531 32.9933 9.70531 32.9706L9.72798 32.9593Z" fill="#EEC17D"/>
<path d="M17.1884 13.9117C17.1884 9.64868 19.1385 5.6124 22.4945 2.98201C16.4627 -1.76856 7.72123 -0.725472 2.97066 5.31761C-1.76856 11.3494 -0.72548 20.0909 5.3176 24.8414C10.363 28.8097 17.4605 28.8097 22.5058 24.8414C19.1498 22.211 17.1884 18.1748 17.1997 13.9117H17.1884Z" fill="#EEC17D"/>
<path d="M45.0002 13.9116C45.0002 21.5874 38.7757 27.8119 31.1 27.8119C27.982 27.8119 24.9548 26.7688 22.5059 24.8413C28.5489 20.0908 29.592 11.3606 24.8415 5.31753C24.1612 4.44451 23.3675 3.6622 22.5059 2.98193C28.5376 -1.76864 37.2791 -0.714218 42.0297 5.31753C43.9571 7.76651 45.0002 10.7937 45.0002 13.9116Z" fill="#EEC17D"/>
<path d="M43.6624 22.5169V22.0634H43.8438V21.9727H43.3789V22.0634H43.5717V22.5169H43.651H43.6624ZM44.558 22.5169V21.9727H44.422L44.2633 22.3581L44.1045 21.9727H43.9798V22.5169H44.0819V22.1087L44.2292 22.4602H44.3313L44.4787 22.1087V22.5169H44.558Z" fill="#EEC17D"/>
<path d="M24.3878 5.66876C23.8323 4.95447 23.186 4.31955 22.4944 3.72998C19.4785 6.26966 17.7438 9.94313 17.7552 13.9114C17.7552 17.8796 19.4899 21.5531 22.5057 24.0928C25.1021 21.9046 26.7461 18.8774 27.1543 15.4987C27.5738 11.9613 26.5987 8.46921 24.3992 5.66876H24.3878Z" fill="#EEC17D"/>
</g>
<defs>
<clipPath id="clip0_47_22">
<rect width="45" height="35" fill="white"/>
</clipPath>
</defs>
</svg>
