<svg width="218" height="190" viewBox="0 0 218 190" fill="none" xmlns="http://www.w3.org/2000/svg">
<g clip-path="url(#clip0_30_91)">
<path d="M123.657 188.077H122.851C122.74 188.077 122.644 188.053 122.548 187.997C122.548 187.997 122.453 187.933 122.357 187.686C122.253 187.422 122.165 187.047 122.102 186.553C122.038 186.026 121.998 185.316 121.998 184.438V156.349C121.998 156.157 121.847 156.006 121.655 156.006H115.547C115.419 156.006 115.3 156.078 115.244 156.189L115.172 156.325L114.582 156.916C114.486 157.011 114.454 157.163 114.51 157.291C114.566 157.418 114.686 157.498 114.829 157.498H115.969C116.073 157.498 116.153 157.522 116.233 157.57C116.233 157.57 116.32 157.626 116.424 157.897C116.528 158.168 116.615 158.567 116.679 159.086C116.743 159.637 116.783 160.339 116.783 161.185V169.699C116.4 168.965 115.954 168.311 115.451 167.752C114.096 166.236 112.397 165.47 110.403 165.47C108.984 165.47 107.676 165.773 106.496 166.38C105.324 166.978 104.311 167.84 103.482 168.933C102.668 170.002 102.023 171.311 101.576 172.811C101.129 174.296 100.906 175.963 100.906 177.759C100.906 179.554 101.129 181.222 101.576 182.69C102.023 184.175 102.668 185.475 103.482 186.545C104.311 187.638 105.332 188.5 106.496 189.09C107.668 189.697 108.984 190 110.403 190C112.397 190 114.088 189.242 115.443 187.742C115.946 187.183 116.392 186.537 116.775 185.803V189.234C116.775 189.425 116.926 189.577 117.118 189.577H123.106L123.449 189.529C123.577 189.513 123.689 189.425 123.728 189.298L123.984 188.532C124.015 188.428 124 188.316 123.936 188.228C123.872 188.141 123.768 188.085 123.657 188.085V188.077ZM116.775 177.759C116.775 179.387 116.623 180.879 116.32 182.188C116.025 183.48 115.595 184.59 115.036 185.491C114.494 186.369 113.84 187.055 113.091 187.542C112.365 188.005 111.536 188.244 110.619 188.244C109.455 188.244 108.506 187.375 107.74 185.579C106.895 183.592 106.472 180.959 106.472 177.751C106.472 174.543 106.903 171.91 107.748 169.923C108.49 168.127 109.431 167.257 110.627 167.257C111.544 167.257 112.381 167.489 113.107 167.944C113.856 168.415 114.51 169.101 115.044 169.987C115.603 170.904 116.033 172.021 116.328 173.314C116.631 174.631 116.783 176.115 116.783 177.743L116.775 177.759Z" fill="white"/>
<path d="M143.983 168.79C142.229 166.42 139.549 165.215 136.009 165.215C132.684 165.215 130.084 166.3 128.29 168.431C126.527 170.529 125.634 173.57 125.634 177.456C125.634 177.703 125.634 177.943 125.658 178.182C125.674 178.398 125.674 178.613 125.674 178.828C125.674 178.956 125.69 179.068 125.714 179.156C125.714 179.307 125.73 179.435 125.746 179.555C125.754 179.626 125.762 179.706 125.77 179.858C126.161 183.074 127.381 185.571 129.406 187.279C131.424 188.971 134.183 189.833 137.612 189.833C139.198 189.833 140.682 189.37 142.021 188.452C143.345 187.55 144.406 186.266 145.171 184.67L145.482 184.151C145.53 184.071 145.546 183.975 145.522 183.888C145.498 183.8 145.442 183.72 145.355 183.68L144.334 183.114C144.254 183.066 144.15 183.058 144.063 183.09C143.975 183.122 143.895 183.185 143.855 183.273L143.704 183.608C143.042 185.061 142.165 186.194 141.08 186.976C140.02 187.742 138.848 188.133 137.604 188.133C135.626 188.133 134.135 187.391 133.042 185.867C131.918 184.287 131.272 181.917 131.137 178.836V178.533H146.032C146.12 178.533 146.208 178.493 146.28 178.429C146.343 178.366 146.375 178.278 146.375 178.182V177.839C146.311 173.913 145.506 170.873 143.975 168.798L143.983 168.79ZM131.152 176.905C131.2 173.57 131.671 171.008 132.564 169.301C133.409 167.697 134.542 166.923 136.025 166.923C137.731 166.923 139.007 167.816 139.94 169.66C140.753 171.367 141.192 173.801 141.24 176.905H131.144H131.152Z" fill="white"/>
<path d="M157.507 188.125H156.949C156.845 188.125 156.742 188.101 156.646 188.045C156.63 188.037 156.55 187.981 156.447 187.742C156.343 187.478 156.255 187.095 156.192 186.584C156.128 186.05 156.088 185.332 156.088 184.446V165.693C156.088 165.502 155.936 165.35 155.745 165.35H149.884C149.884 165.35 149.828 165.35 149.804 165.358L149.621 165.398C149.557 165.414 149.501 165.446 149.453 165.494L148.791 166.18C148.696 166.276 148.672 166.427 148.72 166.547C148.776 166.675 148.895 166.755 149.031 166.755H150.091C150.195 166.755 150.275 166.778 150.346 166.818C150.346 166.818 150.45 166.882 150.578 167.177C150.689 167.441 150.785 167.832 150.849 168.343C150.913 168.893 150.953 169.611 150.953 170.481V184.438C150.953 185.316 150.921 186.034 150.849 186.576C150.769 187.199 150.665 187.534 150.586 187.702C150.458 187.973 150.362 188.037 150.354 188.045C150.275 188.093 150.187 188.117 150.067 188.117L149.469 188.156C149.294 188.172 149.15 188.316 149.15 188.5V188.843C149.15 188.843 149.15 188.899 149.158 188.923L149.198 189.106C149.214 189.17 149.246 189.218 149.286 189.266L149.485 189.473C149.549 189.537 149.637 189.577 149.732 189.577H157.109C157.109 189.577 157.164 189.577 157.188 189.569L157.372 189.529C157.436 189.513 157.491 189.481 157.539 189.433L157.739 189.226C157.802 189.162 157.834 189.074 157.834 188.986V188.468C157.834 188.276 157.683 188.125 157.491 188.125H157.507Z" fill="white"/>
<path d="M153.177 163.196C153.273 163.196 153.369 163.204 153.456 163.204C154.326 163.204 155.107 162.9 155.769 162.302C156.534 161.64 156.957 160.818 157.029 159.844C157.101 158.879 156.798 158.001 156.136 157.235C155.506 156.493 154.684 156.086 153.696 156.014C152.707 155.95 151.838 156.245 151.12 156.892C150.346 157.53 149.916 158.352 149.844 159.341C149.772 160.331 150.075 161.201 150.721 161.927C151.359 162.701 152.181 163.132 153.169 163.204L153.177 163.196Z" fill="white"/>
<path d="M182.036 187.064C181.925 186.912 181.717 186.88 181.566 186.984L181.287 187.175C181.047 187.343 180.768 187.487 180.457 187.606C180.226 187.694 179.971 187.734 179.708 187.734C179.325 187.734 179.181 187.622 179.102 187.534C179.078 187.51 178.886 187.271 178.886 186.322V173.65C178.886 167.88 175.832 164.959 169.82 164.959C167.874 164.959 166.128 165.422 164.628 166.34C163.097 167.274 161.973 168.742 161.271 170.689C161.024 171.287 160.952 171.942 161.056 172.62C161.16 173.306 161.447 173.921 161.909 174.455C162.571 175.19 163.392 175.597 164.357 175.66C165.322 175.724 166.199 175.445 166.981 174.799C167.714 174.136 168.121 173.298 168.185 172.309C168.257 171.311 167.954 170.426 167.284 169.684C166.726 169.061 166.04 168.662 165.234 168.503C165.187 168.495 165.139 168.487 165.091 168.479C165.529 168.104 166 167.776 166.502 167.505C167.539 166.946 168.655 166.667 169.82 166.667C171.072 166.667 171.997 167.034 172.635 167.792C173.384 168.686 173.759 170.098 173.759 171.982C173.759 173.865 173.288 175.365 172.355 176.203C171.406 177.065 169.804 177.504 167.595 177.504C166.415 177.504 165.314 177.671 164.333 178.014C163.345 178.358 162.483 178.836 161.758 179.443C161.024 180.065 160.458 180.823 160.059 181.693C159.66 182.563 159.461 183.529 159.461 184.566C159.461 186.242 160.139 187.511 161.471 188.34C162.172 188.819 163.065 189.17 164.11 189.386C165.115 189.593 166.303 189.705 167.627 189.705C169.501 189.705 171.143 189.083 172.491 187.862C173.025 187.375 173.488 186.808 173.879 186.17C173.918 186.337 173.966 186.489 174.022 186.625C174.253 187.558 174.7 188.316 175.322 188.875C176.079 189.601 177.244 189.96 178.791 189.96C179.644 189.96 180.362 189.841 180.928 189.609C181.582 189.346 182.084 189.051 182.459 188.707L182.682 188.5C182.81 188.38 182.834 188.189 182.73 188.045L182.012 187.056L182.036 187.064ZM173.767 181.294C173.583 183.417 172.938 185.117 171.861 186.337C170.8 187.534 169.477 188.125 167.818 188.125C166.678 188.125 165.872 187.814 165.346 187.167C164.86 186.585 164.604 185.667 164.604 184.438C164.604 182.786 164.939 181.454 165.601 180.472C166.223 179.555 166.965 179.124 167.946 179.124C169.915 179.124 171.478 178.789 172.595 178.126C173.041 177.863 173.432 177.536 173.767 177.145V181.286V181.294Z" fill="white"/>
<path d="M200.576 177.551C200.576 177.551 200.56 177.543 200.56 177.535C198.981 176.203 196.725 175.317 193.838 174.894C192.307 174.679 191.127 174.264 190.329 173.657C189.596 173.099 189.253 172.468 189.253 171.678C189.253 170.066 189.612 168.774 190.313 167.824C190.983 166.93 191.837 166.491 192.929 166.491C193.503 166.491 194.061 166.547 194.58 166.659C194.444 166.755 194.309 166.858 194.181 166.978C193.447 167.64 193.041 168.47 192.977 169.444C192.905 170.425 193.192 171.303 193.838 172.045C194.492 172.779 195.329 173.186 196.31 173.258C197.283 173.33 198.16 173.043 198.91 172.396C199.643 171.734 200.042 170.904 200.114 169.923C200.186 168.949 199.875 168.055 199.253 167.361C199.133 167.202 198.981 167.05 198.886 166.986C198.048 166.172 197.1 165.598 196.079 165.27C195.09 164.951 194.029 164.784 192.937 164.784C191.677 164.784 190.505 164.951 189.46 165.286C188.408 165.622 187.475 166.108 186.693 166.731C185.904 167.369 185.282 168.143 184.859 169.045C184.428 169.947 184.213 170.944 184.213 172.013C184.213 174.088 184.995 175.844 186.534 177.232C188.033 178.581 190.13 179.427 192.762 179.754C194.38 179.969 195.656 180.392 196.541 181.023C197.355 181.605 197.729 182.236 197.729 183.018C197.729 184.59 197.347 185.85 196.581 186.776C195.84 187.678 194.875 188.117 193.623 188.117C191.916 188.117 190.329 187.646 188.878 186.696C189.325 186.553 189.747 186.305 190.138 185.978C190.88 185.348 191.286 184.526 191.358 183.536C191.43 182.555 191.143 181.685 190.505 180.943C189.843 180.177 189.014 179.746 188.049 179.682C187.076 179.618 186.199 179.913 185.425 180.584C184.723 181.214 184.325 182.012 184.237 182.954C184.149 183.903 184.405 184.757 184.979 185.467C185.952 186.832 187.211 187.925 188.727 188.715C190.242 189.505 191.892 189.904 193.623 189.904C194.962 189.904 196.214 189.737 197.347 189.402C198.495 189.066 199.492 188.572 200.313 187.941C201.142 187.303 201.796 186.529 202.259 185.635C202.721 184.741 202.953 183.728 202.953 182.627C202.953 180.664 202.155 178.948 200.584 177.535L200.576 177.551Z" fill="white"/>
<path d="M8.81155 151.178H8.25335C8.14171 151.178 8.04602 151.154 7.95033 151.098C7.95033 151.098 7.85464 151.035 7.75097 150.795C7.64731 150.54 7.55959 150.149 7.4958 149.638C7.432 149.104 7.39213 148.385 7.39213 147.5V128.747C7.39213 128.555 7.24062 128.404 7.04924 128.404H1.19614C1.19614 128.404 1.14032 128.404 1.1164 128.412L0.932991 128.452C0.869197 128.468 0.813377 128.5 0.765532 128.547L0.095695 129.234C4.06965e-06 129.329 -0.0318929 129.481 0.0239268 129.609C0.0797466 129.736 0.19936 129.816 0.342897 129.816H1.41145C1.51511 129.816 1.59485 129.84 1.66662 129.88C1.66662 129.88 1.77029 129.944 1.89788 130.239C2.01749 130.51 2.10521 130.901 2.169 131.404C2.23279 131.955 2.27266 132.673 2.27266 133.543V147.5C2.27266 148.377 2.24077 149.096 2.169 149.638C2.10521 150.133 2.01749 150.524 1.90585 150.763C1.77826 151.043 1.68257 151.106 1.6746 151.106C1.59485 151.154 1.50714 151.178 1.38752 151.178L0.789455 151.218C0.614021 151.234 0.470485 151.378 0.470485 151.561V151.904C0.470485 151.904 0.470485 151.96 0.478459 151.984L0.51833 152.168C0.534279 152.232 0.566176 152.287 0.606047 152.327L0.805403 152.527C0.869197 152.591 0.956914 152.631 1.04463 152.631H8.42081C8.42081 152.631 8.47663 152.631 8.50055 152.623L8.68396 152.583C8.74775 152.567 8.80357 152.535 8.85142 152.487L9.05078 152.287C9.11457 152.224 9.14647 152.136 9.14647 152.048V151.521C9.14647 151.33 8.99496 151.178 8.80357 151.178H8.81155Z" fill="white"/>
<path d="M4.48944 126.249C4.58514 126.249 4.68083 126.257 4.76854 126.257C5.63774 126.257 6.41921 125.954 7.08108 125.356C7.8466 124.693 8.26924 123.863 8.34101 122.898C8.41277 121.932 8.10975 121.054 7.44789 120.288C6.80995 119.546 5.99658 119.139 5.00777 119.067C4.03491 119.004 3.13382 119.307 2.43209 119.945C1.65859 120.584 1.22798 121.406 1.15621 122.395C1.08444 123.385 1.38746 124.254 2.03338 124.98C2.67132 125.755 3.49266 126.185 4.48147 126.257L4.48944 126.249Z" fill="white"/>
<path d="M45.0545 151.178H44.4963C44.3687 151.178 44.265 151.154 44.1933 151.106C44.1853 151.106 44.0896 151.034 43.97 150.763C43.8903 150.588 43.7866 150.252 43.7068 149.614C43.6431 149.063 43.6032 148.337 43.6032 147.452V138.291C43.6032 135.179 42.9333 132.753 41.6256 131.077C41.171 130.454 40.5969 129.952 39.935 129.577C39.2891 129.218 38.6033 128.938 37.8856 128.755C37.1839 128.603 36.4742 128.515 35.7645 128.483C35.1425 128.452 34.4647 128.499 33.7311 128.619C32.9576 128.755 32.2319 129.034 31.586 129.449C30.9959 129.832 30.5015 130.199 30.1107 130.534C29.7519 130.853 29.4808 131.117 29.2575 131.372C29.1857 131.26 29.106 131.157 29.0263 131.053C28.5398 130.439 27.9737 129.944 27.3277 129.577C26.6978 129.218 26.012 128.938 25.2863 128.747C24.5607 128.595 23.827 128.507 23.1253 128.475C22.5193 128.444 21.8415 128.491 21.1078 128.611C20.3423 128.747 19.6326 129.018 19.0026 129.433C18.4763 129.752 18.0377 130.063 17.6789 130.359V128.731C17.6789 128.539 17.5194 128.388 17.336 128.388H11.4351L11.0922 128.436C10.9247 128.46 10.7971 128.603 10.7971 128.771V129.457C10.7971 129.649 10.9486 129.8 11.14 129.8H11.6504C11.778 129.8 11.8816 129.824 11.9534 129.864C11.9534 129.864 12.0491 129.928 12.1846 130.223C12.2963 130.486 12.392 130.877 12.4558 131.38C12.5196 131.923 12.5594 132.641 12.5594 133.519V147.475C12.5594 148.353 12.5275 149.071 12.4558 149.614C12.376 150.237 12.2644 150.572 12.1926 150.739C12.065 151.019 11.9693 151.082 11.9693 151.082C11.8896 151.13 11.7859 151.154 11.6583 151.154H11.4909C11.4909 151.154 11.4351 151.154 11.4111 151.162L11.0682 151.25C10.9167 151.29 10.8131 151.425 10.8131 151.585V152.271C10.8131 152.463 10.9646 152.614 11.156 152.614H18.7793C18.7793 152.614 18.8352 152.614 18.8591 152.607L19.0425 152.567C19.1143 152.551 19.186 152.511 19.2339 152.447L19.4332 152.2C19.4811 152.136 19.505 152.064 19.505 151.984V151.505C19.505 151.314 19.3535 151.162 19.1621 151.162H18.564C18.4683 151.162 18.3806 151.138 18.2929 151.09C18.253 151.066 18.1653 150.971 18.0696 150.747C17.958 150.5 17.8623 150.109 17.8065 149.622C17.7427 149.071 17.7028 148.353 17.7028 147.483V132.984C17.958 132.569 18.2291 132.218 18.5162 131.939C18.875 131.596 19.186 131.324 19.4811 131.117C19.7681 130.901 20.0632 130.726 20.3263 130.614C20.9085 130.407 21.4268 130.271 21.8654 130.223C22.304 130.175 22.6788 130.175 22.9897 130.223C23.2848 130.271 23.54 130.343 23.7314 130.439C24.0105 130.574 24.146 130.67 24.1859 130.71C24.7281 131.189 25.1587 132.026 25.4458 133.208C25.7568 134.476 25.9163 136.192 25.9163 138.291V147.452C25.9163 148.329 25.8844 149.055 25.8126 149.614C25.7329 150.252 25.6292 150.596 25.5495 150.763C25.4378 151.011 25.3501 151.074 25.3182 151.09C25.2225 151.146 25.1268 151.17 25.0232 151.17H24.2098C24.0902 151.17 23.9786 151.234 23.9227 151.33C23.8589 151.433 23.8589 151.553 23.9068 151.665L24.2975 152.431C24.3533 152.543 24.473 152.622 24.6005 152.622H32.0963C32.0963 152.622 32.1522 152.622 32.1761 152.614L32.3595 152.575C32.4313 152.559 32.4951 152.519 32.5429 152.455L32.7423 152.215C32.7901 152.152 32.822 152.08 32.822 152V151.521C32.822 151.33 32.6705 151.178 32.4791 151.178H31.9289C31.8013 151.178 31.7056 151.154 31.6259 151.106C31.6259 151.106 31.5302 151.042 31.4026 150.771C31.3228 150.604 31.2192 150.26 31.1394 149.622C31.0756 149.071 31.0358 148.345 31.0358 147.46V138.299C31.0358 136.703 30.8603 135.282 30.5015 134.053L30.2224 133.176C30.4616 132.769 30.7248 132.41 31.0118 132.114C31.3787 131.731 31.7056 131.436 32.0006 131.221C32.3116 130.981 32.6386 130.774 32.9177 130.638C34.3849 130.127 35.1584 130.135 35.5572 130.231C36.3466 130.423 36.6736 130.622 36.7852 130.71C37.3035 131.189 37.7182 132.027 38.0053 133.216C38.3163 134.484 38.4757 136.192 38.4757 138.299V147.46C38.4757 148.337 38.4438 149.063 38.3721 149.63C38.3003 150.268 38.1887 150.612 38.1169 150.779C37.9893 151.058 37.9016 151.122 37.8936 151.122C37.8218 151.17 37.7262 151.194 37.6065 151.194H36.5141C36.3785 151.194 36.2509 151.282 36.1951 151.41C36.1393 151.537 36.1712 151.689 36.2748 151.785L37.0643 152.551C37.1281 152.614 37.2158 152.646 37.3035 152.646H44.6797C44.6797 152.646 44.7355 152.646 44.7594 152.638L44.9429 152.599C45.0066 152.583 45.0625 152.551 45.1103 152.503L45.3097 152.295C45.3735 152.231 45.4054 152.144 45.4054 152.056V151.537C45.4054 151.346 45.2538 151.194 45.0625 151.194L45.0545 151.178Z" fill="white"/>
<path d="M67.207 132.346C66.3059 131.26 65.2054 130.407 63.9375 129.808C62.6617 129.21 61.2502 128.906 59.7351 128.906C58.0446 128.906 56.6252 129.601 55.5167 130.973C55.2057 131.38 54.9107 131.843 54.6475 132.37V129.034C54.6475 128.843 54.496 128.691 54.3046 128.691H48.316L47.9731 128.739C47.8056 128.763 47.678 128.906 47.678 129.074V129.257L47.4627 129.696C47.4069 129.8 47.4149 129.928 47.4787 130.032C47.5425 130.135 47.6541 130.191 47.7658 130.191H48.5712C48.7227 130.191 48.9141 130.454 49.0656 130.877C49.3128 131.556 49.4324 132.769 49.4324 134.476V155.838C49.4324 156.716 49.4005 157.434 49.3287 157.977C49.2649 158.48 49.1772 158.879 49.0735 159.134C48.9699 159.381 48.8822 159.437 48.8662 159.445C48.7705 159.501 48.6748 159.525 48.5712 159.525H47.9731C47.7817 159.525 47.6302 159.677 47.6302 159.868V160.211C47.6302 160.299 47.6461 160.379 47.6701 160.467V160.682C47.6701 160.874 47.8216 161.025 48.013 161.025H55.8756C55.9872 161.025 56.0829 160.969 56.1547 160.882L56.8165 160.092C56.9043 159.988 56.9202 159.844 56.8644 159.725C56.8086 159.605 56.6889 159.525 56.5534 159.525H55.4529C55.3493 159.525 55.2695 159.501 55.1898 159.453C55.1898 159.453 55.1021 159.397 54.9984 159.134C54.8947 158.879 54.807 158.488 54.7432 157.985C54.6794 157.434 54.6396 156.716 54.6396 155.838V149.949C54.9107 150.476 55.2057 150.955 55.5247 151.386C56.6252 152.742 58.0446 153.436 59.7351 153.436C61.2582 153.436 62.6696 153.133 63.9375 152.535C65.2134 151.936 66.3139 151.082 67.207 149.997C68.1001 148.92 68.8018 147.619 69.2962 146.119C69.7906 144.635 70.0378 142.959 70.0378 141.147C70.0378 139.336 69.7906 137.676 69.2962 136.2C68.8018 134.716 68.1001 133.415 67.207 132.338V132.346ZM64.5276 141.155C64.5276 142.783 64.3921 144.276 64.1369 145.608C63.8817 146.909 63.5069 148.034 63.0444 148.944C62.5979 149.822 62.0556 150.508 61.4336 150.987C60.8515 151.433 60.2215 151.657 59.5198 151.657C58.0366 151.657 56.9043 150.891 56.059 149.327C55.118 147.523 54.6396 144.778 54.6396 141.163C54.6396 137.549 55.118 134.835 56.051 133.008C56.8963 131.436 58.0286 130.67 59.5118 130.67C60.2215 130.67 60.8435 130.893 61.4256 131.34C62.0397 131.819 62.5819 132.505 63.0365 133.383C63.499 134.293 63.8737 135.418 64.1289 136.735C64.3921 138.075 64.5197 139.567 64.5197 141.163L64.5276 141.155Z" fill="white"/>
<path d="M88.0038 129.521C87.5492 129.034 87.015 128.691 86.393 128.483C85.763 128.268 85.1011 128.252 84.5031 128.419C83.2112 128.675 82.0071 129.473 80.9226 130.773C80.3325 131.484 79.8142 132.306 79.3677 133.239V128.794C79.3677 128.603 79.2161 128.451 79.0248 128.451H73.1238L72.7809 128.491C72.6135 128.515 72.4779 128.659 72.4779 128.834V129.521C72.4779 129.712 72.6294 129.864 72.8208 129.864H73.379C73.4827 129.864 73.5863 129.888 73.682 129.944C73.7139 129.96 73.7937 130.047 73.8734 130.263C73.9771 130.534 74.0648 130.941 74.1286 131.452C74.1924 132.002 74.2322 132.721 74.2322 133.59V147.419C74.2322 148.297 74.2003 149.015 74.1286 149.558C74.0648 150.077 73.9771 150.476 73.8734 150.747C73.7857 150.97 73.698 151.082 73.6501 151.122C73.6023 151.154 73.5305 151.194 73.379 151.194H73.1637C73.06 151.194 72.9564 151.242 72.8926 151.33L72.5816 151.776C72.5417 151.832 72.5257 151.896 72.5257 151.96V152.303C72.5257 152.495 72.6773 152.646 72.8686 152.646H80.5399C80.6276 152.646 80.7153 152.606 80.7791 152.542L81.5446 151.776C81.6403 151.681 81.6722 151.529 81.6164 151.401C81.5606 151.274 81.441 151.194 81.2974 151.194H80.2209C80.1332 151.194 80.0614 151.17 79.9896 151.122C79.9737 151.106 79.8621 151.026 79.7345 150.723C79.6228 150.46 79.5271 150.069 79.4633 149.566C79.3996 149.023 79.3597 148.297 79.3597 147.427V137.572C79.4633 137.285 79.559 136.99 79.6547 136.687C79.7345 136.415 79.7903 136.256 79.8222 136.168C80.1332 135.418 80.5478 134.747 81.0502 134.181C81.3453 133.854 81.6563 133.558 81.9912 133.303C82.1347 133.646 82.3261 133.965 82.5733 134.269C83.2352 135.003 84.0645 135.41 85.0373 135.474C86.0182 135.545 86.8953 135.258 87.6449 134.612C88.3786 133.949 88.7852 133.128 88.849 132.162C88.9208 131.204 88.6417 130.327 88.0038 129.553L87.9878 129.537L88.0038 129.521Z" fill="white"/>
<path d="M128.066 133.207C128.377 134.476 128.537 136.184 128.537 138.291V147.451C128.537 148.329 128.505 149.055 128.433 149.614C128.353 150.26 128.25 150.595 128.17 150.771C128.05 151.05 127.955 151.106 127.955 151.106C127.883 151.154 127.787 151.178 127.668 151.178H126.575C126.44 151.178 126.312 151.258 126.256 151.393C126.2 151.521 126.232 151.673 126.336 151.768L127.117 152.535C127.181 152.598 127.269 152.63 127.357 152.63H134.733C134.733 152.63 134.789 152.63 134.813 152.622L134.996 152.582C135.06 152.566 135.116 152.535 135.163 152.487L135.363 152.287C135.427 152.223 135.459 152.136 135.459 152.048V151.521C135.459 151.33 135.307 151.178 135.116 151.178H134.557C134.43 151.178 134.326 151.154 134.246 151.106C134.246 151.106 134.143 151.042 134.023 150.763C133.943 150.595 133.84 150.252 133.76 149.614C133.696 149.063 133.656 148.337 133.656 147.451V138.291C133.656 135.178 132.987 132.753 131.679 131.077C131.224 130.454 130.65 129.952 129.988 129.577C129.342 129.217 128.657 128.938 127.939 128.755C127.237 128.603 126.519 128.515 125.818 128.483C125.196 128.451 124.518 128.499 123.784 128.619C123.011 128.755 122.285 129.034 121.647 129.449C121.057 129.832 120.563 130.199 120.172 130.534C119.813 130.853 119.534 131.117 119.319 131.372C119.247 131.26 119.167 131.157 119.087 131.053C118.601 130.438 118.035 129.944 117.389 129.577C116.759 129.217 116.073 128.938 115.347 128.755C114.622 128.603 113.888 128.515 113.186 128.483C112.572 128.451 111.895 128.499 111.169 128.619C110.403 128.755 109.694 129.026 109.064 129.441C108.537 129.76 108.091 130.071 107.74 130.367V128.739C107.74 128.547 107.581 128.396 107.397 128.396H101.496L101.153 128.443C100.986 128.467 100.858 128.611 100.858 128.779V129.465C100.858 129.656 101.01 129.808 101.201 129.808H101.712C101.839 129.808 101.943 129.832 102.015 129.872C102.015 129.872 102.11 129.936 102.238 130.231C102.349 130.494 102.445 130.893 102.509 131.388C102.573 131.939 102.613 132.657 102.613 133.527V147.483C102.613 148.361 102.581 149.079 102.509 149.622C102.445 150.117 102.357 150.508 102.246 150.755C102.126 151.018 102.038 151.082 102.038 151.082C101.943 151.122 101.504 151.202 101.153 151.25C100.986 151.274 100.858 151.417 100.858 151.585V152.271C100.858 152.463 101.01 152.614 101.201 152.614H108.825C108.825 152.614 108.88 152.614 108.904 152.606L109.088 152.566C109.159 152.55 109.223 152.511 109.271 152.447L109.47 152.207C109.518 152.144 109.55 152.072 109.55 151.992V151.513C109.55 151.322 109.399 151.17 109.207 151.17H108.609C108.506 151.17 108.426 151.146 108.338 151.098C108.33 151.098 108.234 151.026 108.107 150.755C107.995 150.508 107.9 150.117 107.844 149.63C107.772 149.087 107.74 148.369 107.74 147.491V132.992C107.995 132.577 108.266 132.226 108.553 131.947C108.912 131.603 109.231 131.332 109.518 131.125C109.797 130.909 110.1 130.734 110.364 130.622C110.946 130.414 111.464 130.279 111.903 130.231C112.341 130.183 112.716 130.183 113.027 130.231C113.322 130.279 113.577 130.351 113.761 130.446C114.04 130.59 114.175 130.686 114.215 130.718C114.765 131.196 115.188 132.034 115.475 133.215C115.786 134.484 115.946 136.192 115.946 138.298V147.459C115.946 148.337 115.914 149.063 115.842 149.622C115.762 150.26 115.658 150.603 115.579 150.771C115.467 151.018 115.379 151.082 115.347 151.098C115.252 151.154 115.156 151.178 115.052 151.178H114.239C114.119 151.178 114.008 151.242 113.952 151.338C113.896 151.433 113.888 151.561 113.936 151.673L114.327 152.439C114.383 152.55 114.502 152.63 114.63 152.63H122.126C122.126 152.63 122.181 152.63 122.205 152.622L122.389 152.582C122.461 152.566 122.524 152.527 122.572 152.463L122.772 152.223C122.819 152.159 122.851 152.088 122.851 152.008V151.529C122.851 151.338 122.7 151.186 122.508 151.186H121.958C121.839 151.186 121.735 151.162 121.663 151.114C121.663 151.114 121.567 151.05 121.44 150.771C121.36 150.603 121.256 150.268 121.177 149.622C121.113 149.071 121.073 148.345 121.073 147.459V138.298C121.073 136.703 120.898 135.282 120.539 134.053L120.26 133.175C120.499 132.768 120.762 132.409 121.049 132.114C121.408 131.739 121.743 131.436 122.038 131.22C122.349 130.981 122.676 130.774 122.947 130.638C124.406 130.127 125.188 130.135 125.586 130.231C126.376 130.422 126.703 130.622 126.814 130.71C127.333 131.188 127.747 132.026 128.035 133.215L128.066 133.207Z" fill="white"/>
<path d="M141.702 126.249C141.798 126.249 141.894 126.257 141.982 126.257C142.851 126.257 143.632 125.954 144.294 125.356C145.06 124.693 145.482 123.871 145.554 122.898C145.626 121.932 145.323 121.054 144.661 120.288C144.023 119.546 143.21 119.139 142.221 119.067C141.24 119.004 140.347 119.307 139.645 119.945C138.872 120.584 138.441 121.406 138.369 122.395C138.297 123.385 138.6 124.254 139.246 124.98C139.884 125.755 140.706 126.185 141.694 126.257L141.702 126.249Z" fill="white"/>
<path d="M137.556 129.808H138.624C138.728 129.808 138.808 129.832 138.888 129.872C138.896 129.872 138.991 129.944 139.119 130.231C139.23 130.494 139.326 130.885 139.39 131.388C139.454 131.939 139.494 132.657 139.494 133.527V147.483C139.494 148.361 139.462 149.079 139.39 149.622C139.31 150.244 139.207 150.58 139.127 150.747C138.999 151.027 138.903 151.09 138.895 151.09C138.816 151.138 138.728 151.162 138.608 151.162L138.01 151.202C137.835 151.218 137.691 151.362 137.691 151.545V151.888C137.691 151.888 137.691 151.944 137.699 151.968L137.739 152.152C137.755 152.215 137.787 152.271 137.827 152.311L138.026 152.511C138.09 152.575 138.178 152.614 138.266 152.614H145.642C145.642 152.614 145.698 152.614 145.721 152.607L145.905 152.567C145.969 152.551 146.024 152.519 146.072 152.471L146.272 152.271C146.335 152.208 146.367 152.12 146.367 152.032V151.505C146.367 151.314 146.216 151.162 146.024 151.162H145.466C145.355 151.162 145.259 151.138 145.163 151.082C145.147 151.074 145.068 151.019 144.964 150.779C144.86 150.516 144.773 150.133 144.709 149.622C144.637 149.087 144.605 148.369 144.605 147.483V128.731C144.605 128.539 144.454 128.388 144.262 128.388H138.401C138.401 128.388 138.345 128.388 138.321 128.396L138.138 128.436C138.074 128.452 138.018 128.483 137.97 128.531L137.301 129.218C137.205 129.313 137.173 129.465 137.229 129.593C137.285 129.72 137.404 129.8 137.54 129.8L137.556 129.808Z" fill="white"/>
<path d="M160.219 130.231C160.514 130.279 160.769 130.351 160.96 130.446C161.096 130.51 161.207 130.574 161.303 130.638L161.415 130.758C161.957 131.229 162.38 132.058 162.675 133.231C162.986 134.484 163.145 136.192 163.145 138.291V147.452C163.145 148.337 163.113 149.063 163.049 149.614C162.97 150.26 162.866 150.596 162.786 150.771C162.659 151.05 162.571 151.106 162.571 151.106C162.491 151.154 162.404 151.178 162.252 151.178L161.654 151.218C161.479 151.234 161.335 151.378 161.335 151.561V152.112C161.335 152.239 161.407 152.359 161.518 152.415L161.861 152.591C161.909 152.614 161.965 152.63 162.013 152.63H169.341C169.341 152.63 169.397 152.63 169.421 152.622L169.604 152.583C169.668 152.567 169.724 152.535 169.764 152.495L169.963 152.295C170.027 152.231 170.067 152.144 170.067 152.056V151.529C170.067 151.338 169.915 151.186 169.724 151.186H169.166C169.038 151.186 168.934 151.162 168.855 151.114C168.855 151.114 168.759 151.05 168.631 150.771C168.552 150.596 168.448 150.26 168.368 149.622C168.304 149.071 168.265 148.345 168.265 147.459V138.299C168.265 135.218 167.595 132.809 166.295 131.141C165.832 130.486 165.258 129.96 164.588 129.593C163.943 129.234 163.249 128.97 162.539 128.819C161.853 128.667 161.136 128.579 160.41 128.547C159.796 128.515 159.118 128.547 158.392 128.659C157.611 128.771 156.885 129.05 156.239 129.465C155.745 129.776 155.322 130.079 154.964 130.367V128.755C154.964 128.563 154.804 128.412 154.621 128.412H148.72C148.72 128.412 148.664 128.412 148.64 128.42L148.297 128.507C148.146 128.547 148.034 128.683 148.034 128.843V129.529C148.034 129.72 148.185 129.872 148.377 129.872H148.935C149.039 129.872 149.142 129.904 149.238 129.952C149.254 129.96 149.35 130.024 149.469 130.279C149.581 130.526 149.677 130.917 149.732 131.404C149.796 131.955 149.836 132.673 149.836 133.543V147.499C149.836 148.377 149.804 149.103 149.732 149.662C149.653 150.308 149.541 150.643 149.469 150.811C149.35 151.074 149.254 151.138 149.238 151.146C149.142 151.202 149.039 151.226 148.903 151.226L148.345 151.266C148.169 151.282 148.034 151.425 148.034 151.609V151.992L148.082 152.335C148.106 152.503 148.249 152.638 148.417 152.638H156C156 152.638 156.056 152.638 156.08 152.63L156.263 152.591C156.327 152.575 156.383 152.543 156.431 152.495L157.101 151.809C157.196 151.713 157.228 151.561 157.172 151.433C157.117 151.306 156.997 151.226 156.861 151.226H155.833C155.721 151.226 155.617 151.202 155.522 151.146C155.49 151.13 155.41 151.042 155.322 150.827C155.219 150.556 155.131 150.157 155.059 149.646C154.995 149.111 154.956 148.393 154.956 147.507V133.008C155.211 132.593 155.482 132.234 155.761 131.955C156.096 131.62 156.407 131.348 156.694 131.141C156.981 130.925 157.26 130.774 157.571 130.67C158.137 130.439 158.648 130.295 159.078 130.247C159.517 130.199 159.892 130.199 160.203 130.247L160.219 130.231Z" fill="white"/>
<path d="M174.708 149.598C175.537 150.691 176.558 151.545 177.722 152.144C178.894 152.75 180.21 153.053 181.629 153.053C183.615 153.053 185.314 152.295 186.669 150.795C187.172 150.236 187.618 149.59 188.009 148.856V152.287C188.009 152.479 188.16 152.63 188.352 152.63H194.34L194.683 152.582C194.819 152.566 194.93 152.471 194.97 152.335L195.218 151.585C195.257 151.481 195.233 151.361 195.17 151.274C195.106 151.186 195.002 151.13 194.891 151.13H194.085C193.974 151.13 193.878 151.106 193.782 151.05C193.766 151.042 193.686 150.986 193.583 150.739C193.479 150.476 193.391 150.101 193.328 149.606C193.264 149.079 193.224 148.369 193.224 147.491V119.402C193.224 119.211 193.072 119.059 192.881 119.059H186.765C186.637 119.059 186.518 119.131 186.462 119.243L186.39 119.378L185.8 119.961C185.704 120.057 185.672 120.208 185.728 120.336C185.784 120.464 185.904 120.543 186.047 120.543H187.187C187.283 120.543 187.371 120.567 187.451 120.615C187.451 120.615 187.538 120.671 187.642 120.942C187.746 121.214 187.833 121.613 187.897 122.131C187.961 122.682 188.001 123.384 188.001 124.23V132.745C187.618 132.01 187.172 131.356 186.669 130.797C185.314 129.281 183.615 128.515 181.629 128.515C180.21 128.515 178.902 128.818 177.722 129.425C176.558 130.023 175.545 130.885 174.708 131.97C173.894 133.04 173.248 134.348 172.802 135.849C172.355 137.333 172.132 138.993 172.132 140.796C172.132 142.6 172.355 144.259 172.802 145.728C173.248 147.212 173.894 148.513 174.708 149.582V149.598ZM177.69 140.812C177.69 137.604 178.121 134.971 178.966 132.984C179.708 131.188 180.657 130.319 181.845 130.319C182.762 130.319 183.599 130.55 184.325 131.005C185.074 131.476 185.728 132.162 186.262 133.048C186.821 133.965 187.251 135.083 187.546 136.375C187.849 137.692 188.001 139.176 188.001 140.804C188.001 142.432 187.849 143.924 187.546 145.233C187.251 146.526 186.821 147.643 186.262 148.537C185.728 149.414 185.066 150.101 184.317 150.587C183.591 151.05 182.762 151.29 181.845 151.29C180.68 151.29 179.732 150.42 178.966 148.624C178.121 146.637 177.698 144.004 177.698 140.796L177.69 140.812Z" fill="white"/>
<path d="M215.281 131.212C213.447 129.034 210.799 127.925 207.402 127.925C204.005 127.925 201.358 129.034 199.54 131.212C197.753 133.359 196.852 136.455 196.852 140.429C196.852 144.403 197.753 147.499 199.54 149.646C201.358 151.824 203.997 152.934 207.402 152.934C210.807 152.934 213.447 151.832 215.281 149.646C217.083 147.499 217.992 144.403 217.992 140.429C217.992 136.455 217.083 133.359 215.281 131.212ZM203.71 132.106C204.587 130.359 205.799 129.505 207.402 129.505C209.005 129.505 210.337 130.438 211.222 132.37C212.107 134.237 212.562 136.95 212.562 140.429C212.562 143.908 212.075 146.869 211.126 148.744C210.233 150.492 209.021 151.346 207.41 151.346C205.704 151.346 204.508 150.452 203.638 148.521C202.745 146.653 202.299 143.932 202.299 140.421C202.299 136.91 202.777 133.981 203.718 132.098L203.71 132.106Z" fill="white"/>
<path d="M98.9285 188.125H98.3703C98.2587 188.125 98.163 188.101 98.0673 188.045C98.0514 188.037 97.9716 187.981 97.868 187.742C97.7643 187.479 97.6766 187.096 97.6128 186.585C97.549 186.05 97.5091 185.332 97.5091 184.446V129.05C97.5091 128.859 97.3576 128.707 97.1662 128.707H91.3052C91.3052 128.707 91.2493 128.707 91.2254 128.715L91.042 128.755C90.9782 128.771 90.9224 128.803 90.8745 128.851L90.2047 129.537C90.109 129.633 90.0771 129.784 90.1329 129.912C90.1888 130.04 90.3084 130.119 90.4519 130.119H91.5205C91.6241 130.119 91.7039 130.143 91.7756 130.183C91.7756 130.183 91.8793 130.247 92.0069 130.542C92.1185 130.806 92.2142 131.213 92.278 131.707C92.3418 132.258 92.3817 132.976 92.3817 133.846V184.454C92.3817 185.332 92.3498 186.05 92.278 186.593C92.2142 187.088 92.1265 187.479 92.0149 187.718C91.8873 187.997 91.7916 188.061 91.7836 188.061C91.7039 188.109 91.6161 188.133 91.4965 188.133L90.8985 188.173C90.723 188.189 90.5795 188.332 90.5795 188.516V188.859C90.5795 188.859 90.5795 188.915 90.5875 188.939L90.6273 189.122C90.6433 189.186 90.6752 189.242 90.7151 189.282L90.9144 189.481C90.9782 189.545 91.0659 189.585 91.1536 189.585H98.5298C98.5298 189.585 98.5856 189.585 98.6096 189.577L98.793 189.537C98.8568 189.521 98.9126 189.489 98.9604 189.442L99.1598 189.234C99.2236 189.17 99.2555 189.083 99.2555 188.995V188.476C99.2555 188.285 99.104 188.133 98.9126 188.133L98.9285 188.125Z" fill="white"/>
<path d="M94.2955 126.249C94.3912 126.249 94.4869 126.257 94.5746 126.257C95.4438 126.257 96.2252 125.954 96.8871 125.356C97.6526 124.693 98.0753 123.871 98.147 122.898C98.2188 121.932 97.9158 121.054 97.2539 120.288C96.624 119.546 95.8026 119.139 94.8138 119.067C93.8409 119.004 92.9399 119.307 92.2381 119.945C91.4646 120.584 91.034 121.406 90.9622 122.395C90.8905 123.385 91.1935 124.254 91.8394 124.98C92.4773 125.755 93.2987 126.185 94.2875 126.257L94.2955 126.249Z" fill="white"/>
<path d="M165.322 39.1969C163.735 34.9836 159.668 33.9701 155.904 33.5312C154.724 33.3956 153.528 33.3716 152.348 33.4754C152.444 32.9008 152.484 32.3662 152.476 31.8475C152.444 29.286 151.096 26.8521 148.768 25.1684C146.032 23.1894 142.46 22.559 139.438 23.5165C134.454 25.0965 130.642 30.1558 129.733 36.396C128.944 41.8382 130.227 47.3763 131.368 52.2519C131.495 52.7946 131.623 53.2973 131.75 53.792L131.774 53.8798C132.875 58.181 133.608 61.0218 127.492 72.3611C127.149 72.9915 127.389 73.7815 128.019 74.1247C128.218 74.2284 128.425 74.2763 128.633 74.2763C129.095 74.2763 129.542 74.0289 129.781 73.598C136.376 61.3649 135.506 57.9575 134.294 53.2335C134.167 52.7307 134.031 52.22 133.904 51.6694C132.763 46.7857 131.591 41.7345 132.309 36.779C133.242 30.3872 137.157 26.9798 140.227 25.9983C142.444 25.296 145.203 25.7988 147.252 27.283C148.927 28.496 149.86 30.1318 149.884 31.8874C149.884 32.5018 149.804 33.1562 149.605 33.9382C147.524 34.4569 145.642 35.3666 144.398 36.4519C143.05 37.6249 142.221 39.4443 142.38 40.8807C142.484 41.7904 142.954 42.5165 143.704 42.9235C144.589 43.4023 145.586 43.4422 146.591 43.0512C148.488 42.3091 150.378 39.8991 151.399 36.9147C151.479 36.6753 151.566 36.4359 151.646 36.1885C152.962 35.997 154.294 35.9731 155.609 36.1247C159.238 36.5476 161.861 37.3855 162.898 40.1306C164.142 43.4342 161.247 46.9932 158.384 49.0281C155.944 50.7677 152.723 51.9487 149.605 53.0978C144.98 54.7975 140.61 56.4015 138.848 59.761C138.521 60.3914 138.76 61.1734 139.39 61.5165C139.693 61.6761 140.044 61.708 140.379 61.6043C140.714 61.5006 140.985 61.2771 141.144 60.9659C142.444 58.4922 146.359 57.0558 150.498 55.5316C153.775 54.3267 157.164 53.0818 159.884 51.1427C163.671 48.4456 167.092 43.8891 165.322 39.2049V39.1969ZM148.576 36.9785C147.795 38.766 146.63 40.2343 145.634 40.6253C145.299 40.761 145.091 40.7131 144.964 40.6492C144.964 40.6333 144.964 40.6173 144.956 40.5934C144.908 40.1385 145.275 39.1251 146.096 38.4069C146.71 37.8723 147.571 37.3775 148.576 36.9865V36.9785Z" fill="white"/>
<path d="M114.103 115.381C111.56 116.123 108.888 114.655 108.147 112.109C107.987 111.558 108.306 110.976 108.856 110.808C109.407 110.641 109.989 110.968 110.156 111.518C110.579 112.955 112.086 113.785 113.521 113.362C114.957 112.939 115.786 111.431 115.363 109.994C115.284 109.723 115.164 109.468 115.013 109.244C114.694 108.765 114.821 108.111 115.3 107.792C115.778 107.473 116.432 107.6 116.751 108.079C117.022 108.486 117.229 108.933 117.373 109.412C118.115 111.957 116.655 114.631 114.111 115.373L114.103 115.381Z" fill="white"/>
<path d="M97.1423 104.64C96.5841 104.799 95.9701 104.528 95.7149 103.985C95.4279 103.379 95.691 102.645 96.2971 102.357L116.839 92.6779C117.445 92.3906 118.178 92.654 118.465 93.2605C118.753 93.8669 118.489 94.6011 117.883 94.8883L97.3417 104.568C97.2779 104.6 97.2141 104.624 97.1503 104.64H97.1423Z" fill="white"/>
<path d="M102.573 110.816C102.015 110.975 101.401 110.704 101.145 110.161C100.858 109.555 101.121 108.821 101.727 108.534L117.269 101.216C117.875 100.921 118.609 101.192 118.896 101.799C119.183 102.405 118.92 103.139 118.314 103.426L102.772 110.744C102.708 110.776 102.645 110.8 102.581 110.816H102.573Z" fill="white"/>
<path d="M141.583 79.2637L119.686 68.1558C119.701 69.0415 119.789 69.8076 119.877 70.7731L140.586 81.4502C141.16 81.7454 141.846 81.4901 142.117 80.8836C142.396 80.2771 142.149 79.543 141.583 79.2557V79.2637Z" fill="white"/>
<path d="M136.176 83.8123L120.419 75.6729C120.61 76.8459 120.69 77.8354 120.842 78.6094L135.179 86.0067C135.754 86.302 136.439 86.0466 136.71 85.4402C136.99 84.8337 136.742 84.0996 136.176 83.8123Z" fill="white"/>
<path d="M120.188 56.9201C122.572 48.0704 125.547 37.0503 121.336 25.2641C114.191 5.28254 91.664 -4.97953 71.1143 2.38586C50.5647 9.74327 39.6559 31.9831 46.7929 51.9566C51.0112 63.7429 60.2933 70.3741 67.7492 75.7046C70.915 77.9709 73.6581 79.926 75.3327 81.8332C78.658 85.6316 85.6833 97.6891 85.755 97.8088C86.0501 98.3195 86.6721 98.527 87.2143 98.3355C87.2861 98.3115 87.3499 98.2796 87.4137 98.2397C87.9958 97.9045 88.2031 97.1624 87.8682 96.5959C87.5732 96.0931 80.6515 84.2191 77.1747 80.2531C75.3167 78.1305 72.4779 76.1036 69.1846 73.7496C61.9998 68.6185 53.0526 62.2267 49.0815 51.1347C42.3831 32.406 52.63 11.5547 71.9117 4.65213C91.1935 -2.25043 112.333 7.36528 119.032 26.094C122.995 37.178 120.132 47.7991 117.827 56.3376C116.775 60.2477 115.866 63.6152 115.77 66.44C115.722 67.8365 115.802 69.4085 115.93 70.9646C115.93 71.0125 115.938 71.0604 115.946 71.1162C116.017 71.8983 116.097 72.6643 116.185 73.4144C116.185 73.4304 116.185 73.4543 116.185 73.4703C116.185 73.5022 116.193 73.5341 116.193 73.5581C116.32 74.5875 116.456 75.545 116.583 76.4069C116.583 76.4069 116.583 76.4228 116.583 76.4308C116.583 76.4468 116.583 76.4547 116.583 76.4707C116.767 77.6358 116.926 78.5694 117.038 79.1519V79.1679C117.054 79.2716 117.078 79.3594 117.086 79.4392C117.086 79.4711 117.094 79.4951 117.102 79.519C117.126 79.6467 117.142 79.7504 117.15 79.7744C117.277 80.4287 117.915 80.8437 118.577 80.708C119.239 80.5723 119.67 79.9339 119.542 79.2876C119.542 79.2876 119.542 79.2557 119.534 79.2397C119.534 79.2078 119.518 79.1679 119.51 79.112C119.51 79.0961 119.502 79.0721 119.494 79.0482C119.47 78.9045 119.43 78.6971 119.382 78.4337C119.382 78.4178 119.382 78.4018 119.374 78.3859C119.351 78.2422 119.319 78.0826 119.287 77.9071C119.279 77.8592 119.271 77.7953 119.263 77.7475C119.239 77.6038 119.215 77.4442 119.183 77.2846C119.167 77.2048 119.151 77.1171 119.143 77.0293C119.119 76.8857 119.095 76.742 119.071 76.5904C119.048 76.4627 119.032 76.3271 119.008 76.1994C118.992 76.0717 118.968 75.944 118.952 75.8164C118.928 75.6488 118.904 75.4732 118.872 75.2897C118.856 75.178 118.84 75.0742 118.824 74.9545C118.808 74.8269 118.784 74.6912 118.768 74.5635C118.737 74.3401 118.705 74.1087 118.673 73.8773C118.649 73.7177 118.633 73.5581 118.609 73.3985C118.585 73.191 118.561 72.9755 118.529 72.7601C118.505 72.5845 118.489 72.409 118.465 72.2334C118.441 72.0179 118.418 71.8025 118.402 71.587C118.378 71.3237 118.354 71.0604 118.33 70.797C118.306 70.5337 118.282 70.2624 118.266 69.999C118.194 68.9776 118.154 67.9801 118.162 67.0465C118.162 66.863 118.162 66.6715 118.162 66.4879C118.242 63.9503 119.119 60.6945 120.132 56.936L120.188 56.9201Z" fill="white"/>
<path d="M85.7072 8.33905C85.165 8.31511 84.6227 8.30713 84.0805 8.30713C83.2671 8.30713 82.6053 8.97744 82.6132 9.79138C82.6132 10.1824 82.7727 10.5574 83.0518 10.8367C83.3309 11.116 83.6977 11.2597 84.0885 11.2597H84.0964C84.5829 11.2597 85.0773 11.2597 85.5797 11.2916C85.6036 11.2916 85.6275 11.2916 85.6514 11.2916C85.8189 11.2916 85.9863 11.2597 86.1458 11.2038C86.712 11.0043 87.0948 10.4776 87.1267 9.87916C87.1426 9.48815 87.007 9.10511 86.7439 8.81784C86.4807 8.52258 86.1139 8.35501 85.7232 8.33905H85.7072Z" fill="white"/>
<path d="M113.505 28.7355C110.061 19.1038 102.031 11.8262 92.0308 9.27266C91.6481 9.17691 91.2494 9.23277 90.9144 9.43226C90.5715 9.63176 90.3323 9.95893 90.2366 10.334C90.1409 10.717 90.1967 11.116 90.3961 11.4512C90.5955 11.7943 90.9224 12.0337 91.2972 12.1294C100.348 14.4436 107.613 21.019 110.722 29.725C110.858 30.1 111.121 30.3953 111.48 30.5629C111.679 30.6586 111.895 30.7065 112.11 30.7065C112.277 30.7065 112.445 30.6746 112.604 30.6187C112.979 30.4831 113.274 30.2197 113.442 29.8606C113.609 29.5016 113.633 29.1026 113.498 28.7275L113.505 28.7355Z" fill="white"/>
<path d="M76.8638 21.7214C76.5847 20.9553 75.7315 20.5643 74.9659 20.8436C74.5991 20.9792 74.3041 21.2505 74.1366 21.6096C73.9692 21.9687 73.9532 22.3677 74.0888 22.7428L76.2099 28.5202C76.4252 29.1187 76.9994 29.4857 77.5974 29.4857C77.7649 29.4857 77.9403 29.4538 78.1078 29.398C78.8733 29.1187 79.2641 28.2648 78.985 27.4988L76.8638 21.7214Z" fill="white"/>
<path d="M71.0027 32.7572L65.7875 29.4934C65.1017 29.0625 64.1847 29.27 63.7541 29.9642C63.5467 30.2994 63.475 30.6984 63.5627 31.0814C63.6504 31.4644 63.8817 31.7916 64.2166 31.9991L69.4317 35.2628C69.671 35.4144 69.9421 35.4863 70.2132 35.4863C70.3887 35.4863 70.5561 35.4543 70.7236 35.3905C71.0346 35.2788 71.2897 35.0713 71.4652 34.792C71.6725 34.4569 71.7443 34.0579 71.6566 33.6748C71.5688 33.2918 71.3376 32.9646 71.0027 32.7572Z" fill="white"/>
<path d="M67.9087 41.7983L61.7924 42.4128C60.987 42.4926 60.3889 43.2188 60.4687 44.0327C60.5484 44.7908 61.1864 45.3573 61.9359 45.3573C61.9838 45.3573 62.0316 45.3573 62.0875 45.3573L68.2037 44.7429C68.3233 44.7269 68.4509 44.703 68.5625 44.6631C69.1925 44.4317 69.5912 43.8013 69.5195 43.131C69.4397 42.325 68.7141 41.7265 67.9007 41.8063L67.9087 41.7983Z" fill="white"/>
<path d="M85.8747 29.4935C86.0183 29.5414 86.1698 29.5653 86.3213 29.5653C86.4888 29.5653 86.6642 29.5334 86.8316 29.4775C87.2623 29.3179 87.5892 28.9748 87.7327 28.5359L89.5907 22.6707C89.7104 22.2957 89.6785 21.8967 89.4951 21.5456C89.3116 21.1945 89.0086 20.9391 88.6338 20.8194C88.259 20.6997 87.8603 20.7316 87.5095 20.9152C87.1586 21.0987 86.9034 21.4019 86.7838 21.777L84.9258 27.6422C84.8062 28.0172 84.8381 28.4162 85.0215 28.7673C85.2049 29.1184 85.5079 29.3738 85.8827 29.4935H85.8747Z" fill="white"/>
<path d="M93.9605 35.2232C94.128 35.2232 94.3034 35.1913 94.4709 35.1354C94.5905 35.0955 94.7022 35.0317 94.7978 34.9678L99.8615 31.4727C100.531 31.0098 100.699 30.0842 100.236 29.4139C100.013 29.0867 99.6781 28.8712 99.2873 28.7994C98.8966 28.7276 98.5059 28.8154 98.1789 29.0388L93.1153 32.534C92.4454 32.9968 92.278 33.9225 92.7405 34.5928C93.0196 34.9998 93.4821 35.2312 93.9526 35.2312L93.9605 35.2232Z" fill="white"/>
<path d="M97.1662 72.8241C97.3017 72.872 97.4373 72.9039 97.5729 72.9039C97.7244 72.9039 97.8839 72.872 98.0274 72.8082C98.3065 72.6885 98.5138 72.465 98.6255 72.1858C98.7371 71.9065 98.7291 71.5952 98.6015 71.3239L91.7915 55.9468L89.7262 56.8645L96.5362 72.2416C96.6558 72.5209 96.8791 72.7284 97.1582 72.8401L97.1662 72.8241Z" fill="white"/>
<path d="M103.091 81.4341L101.026 76.7739C100.906 76.4946 100.683 76.2871 100.404 76.1754C100.125 76.0637 99.8137 76.0716 99.5425 76.1993C99.2635 76.319 99.0561 76.5424 98.9445 76.8217C98.8328 77.101 98.8408 77.4122 98.9684 77.6836L101.034 82.3438C101.153 82.6231 101.377 82.8306 101.656 82.9423C101.791 82.9902 101.927 83.0221 102.062 83.0221C102.222 83.0221 102.373 82.9902 102.517 82.9263C102.796 82.8066 103.003 82.5832 103.115 82.3039C103.227 82.0246 103.219 81.7134 103.091 81.4421V81.4341Z" fill="white"/>
<path d="M89.3913 66.7432C89.5269 66.7911 89.6624 66.823 89.798 66.823C89.9495 66.823 90.109 66.7911 90.2525 66.7273C90.8187 66.4719 91.0818 65.8096 90.8267 65.235L87.5413 57.8218L85.476 58.7395L88.7613 66.1527C88.881 66.432 89.1042 66.6395 89.3833 66.7512L89.3913 66.7432Z" fill="white"/>
<path d="M118.146 84.8175C117.859 84.2111 117.134 83.9477 116.52 84.235L110.619 87.012L108.163 81.0431C108.163 81.0431 108.139 80.9872 108.123 80.9713L96.9589 52.4752L96.935 52.4034L96.919 52.3795C96.8951 52.3316 96.8632 52.2917 96.8473 52.2678C96.8473 52.2678 96.8393 52.2518 96.8313 52.2438L96.8154 52.2119C96.7914 52.172 96.7595 52.1241 96.7197 52.0683V52.0523L81.2975 37.0103C80.9147 36.6353 80.3485 36.5315 79.8621 36.755C79.3757 36.9704 79.0727 37.4572 79.0886 37.9918L79.8781 59.4576V59.5214L79.886 59.5374C79.894 59.6092 79.91 59.6651 79.9259 59.705V59.7449C79.9259 59.7449 79.9419 59.7608 79.9419 59.7688C79.9419 59.8007 79.9578 59.8486 79.9738 59.8965V59.9204L93.8011 87.7621L94.1599 88.608C95.2444 91.1216 95.9223 92.7096 96.3768 93.7151L90.9144 96.2925C90.3084 96.5798 90.0452 97.306 90.3323 97.9204C90.5875 98.4631 91.2015 98.7344 91.7597 98.5748C91.8235 98.5588 91.8873 98.5349 91.9511 98.503L97.868 95.718L110.834 89.6134L117.556 86.4454C118.162 86.1581 118.426 85.432 118.139 84.8175H118.146ZM108.266 88.0653L98.6813 92.6378C98.2986 91.7759 97.7404 90.4353 97.1902 89.1346L96.943 88.5521L106.672 84.235L108.258 88.0653H108.266ZM81.8078 41.1518L85.9146 45.1657L82.0152 46.8973L81.8078 41.1518ZM82.1109 49.3232L87.6609 46.8574L93.6017 52.6588L82.4139 57.6222L82.1109 49.3152V49.3232ZM96.0658 86.4694C96.0658 86.4694 96.0498 86.4374 96.0419 86.4295L82.8684 59.8885L85.476 58.7314L85.2846 58.3005C85.165 58.0212 85.157 57.718 85.2607 57.4387C85.3723 57.1594 85.5796 56.936 85.8587 56.8163C86.4249 56.5609 87.0948 56.8163 87.3499 57.3908L87.5413 57.8217L89.7263 56.8482L89.5349 56.4173C89.2797 55.8507 89.5349 55.1804 90.109 54.9251C90.3881 54.8054 90.6911 54.7974 90.9702 54.9011C91.2493 55.0128 91.4726 55.2203 91.5922 55.4996L91.7836 55.9305L94.9653 54.5181L105.794 82.1523L96.0658 86.4694Z" fill="white"/>
<path d="M91.6001 55.4999C91.4805 55.2206 91.2572 55.0132 90.9781 54.9014C90.699 54.7897 90.388 54.7977 90.1169 54.9254C89.5507 55.1807 89.2876 55.8431 89.5428 56.4176L89.7342 56.8485L91.7995 55.9308L91.6081 55.4999H91.6001Z" fill="white"/>
<path d="M87.3499 57.3911C87.0947 56.8245 86.4329 56.5612 85.8587 56.8165C85.5796 56.9362 85.3723 57.1597 85.2606 57.439C85.149 57.7183 85.157 58.0295 85.2846 58.3008L85.476 58.7317L87.5413 57.814L87.3499 57.3831V57.3911Z" fill="white"/>
<path d="M167.682 16.4064C167.188 15.8957 166.359 15.8797 165.848 16.3745C165.601 16.6139 165.458 16.9411 165.45 17.2842C165.45 17.6273 165.577 17.9625 165.817 18.2098C166.096 18.4971 166.375 18.8004 166.646 19.1116C166.757 19.2392 166.893 19.343 167.045 19.4148C167.228 19.5106 167.427 19.5505 167.627 19.5505C167.938 19.5505 168.241 19.4387 168.48 19.2313C168.743 18.9999 168.895 18.6886 168.919 18.3375C168.942 17.9944 168.831 17.6592 168.6 17.3959C168.304 17.0608 167.993 16.7176 167.682 16.3984V16.4064Z" fill="white"/>
<path d="M171.67 21.7453C171.502 21.4421 171.223 21.2266 170.888 21.1308C170.553 21.0351 170.202 21.083 169.907 21.2505C169.604 21.4181 169.389 21.6974 169.293 22.0326C169.198 22.3677 169.245 22.7188 169.413 23.0221C173.209 29.757 173.44 37.8566 170.019 44.6953C169.7 45.3337 169.963 46.1157 170.601 46.4349C170.784 46.5227 170.984 46.5706 171.183 46.5706C171.319 46.5706 171.462 46.5466 171.598 46.5067C171.925 46.395 172.196 46.1636 172.347 45.8524C176.151 38.2396 175.904 29.2224 171.678 21.7373L171.67 21.7453Z" fill="white"/>
<path d="M163.735 5.28266C148.154 -2.51365 129.358 3.14406 120.834 17.819C121.24 18.5053 121.623 19.1995 121.99 19.9177C129.669 5.35447 147.835 -0.40697 162.826 7.09408C178.025 14.6989 184.293 33.0924 176.797 48.0945C172.363 56.9761 164.301 61.4607 157.826 65.0676C154.86 66.7194 152.3 68.1399 150.546 69.7358C147.244 72.7283 143.449 78.1625 143.289 78.3939C142.97 78.8488 143.082 79.4872 143.536 79.8064C143.991 80.1256 144.629 80.0139 144.948 79.559C144.988 79.5031 148.776 74.0848 151.909 71.244C153.488 69.8076 155.96 68.4351 158.815 66.8471C165.537 63.1046 173.894 58.4523 178.607 49.0122C186.597 33.0126 179.923 13.3982 163.727 5.29862L163.735 5.28266Z" fill="white"/>
<path d="M121.01 78.4822L120.938 78.4497L121.01 78.4822Z" fill="white"/>
<path d="M130.826 89.542C131.105 88.9355 130.857 88.2014 130.291 87.9141L121.44 83.3496C121.583 84.3072 121.687 85.3366 121.886 86.2942L129.286 90.1085C129.861 90.4038 130.546 90.1484 130.818 89.542H130.826Z" fill="white"/>
<path d="M126.679 90.4118C126.2 90.3639 125.77 90.723 125.722 91.2018C125.698 91.4332 125.634 91.6566 125.555 91.8721C125.124 93.0691 123.425 93.3723 123.25 93.4361C123.433 94.1065 123.489 94.4336 123.673 95.1119C123.776 95.08 126.416 94.6411 127.173 92.5584C127.317 92.1674 127.436 91.7763 127.476 91.3614C127.524 90.8826 127.165 90.4517 126.687 90.4038L126.679 90.4118Z" fill="white"/>
</g>
<defs>
<clipPath id="clip0_30_91">
<rect width="218" height="190" fill="white"/>
</clipPath>
</defs>
</svg>
