<svg width="125" height="41" viewBox="0 0 125 41" fill="none" xmlns="http://www.w3.org/2000/svg">
<g clip-path="url(#clip0_25_500)">
<path d="M70.9044 39.8882H70.4396C70.3762 39.8882 70.3233 39.874 70.267 39.8421C70.267 39.8421 70.2142 39.8066 70.1543 39.6645C70.0944 39.5153 70.0451 39.2951 70.0099 39.0109C69.9712 38.7055 69.95 38.2934 69.95 37.7891V21.5567C69.95 21.4466 69.862 21.3578 69.7528 21.3578H66.2488C66.1749 21.3578 66.108 21.4004 66.0763 21.4644L66.034 21.5425L65.6959 21.8835C65.6396 21.9403 65.622 22.0256 65.6537 22.1002C65.6854 22.1747 65.7558 22.2209 65.8333 22.2209H66.4883C66.5446 22.2209 66.5939 22.2351 66.6397 22.2635C66.6397 22.2635 66.689 22.2991 66.7489 22.4518C66.8088 22.6116 66.8616 22.8425 66.8968 23.1373C66.9355 23.4534 66.9567 23.8619 66.9567 24.3485V29.2715C66.7348 28.8453 66.4812 28.4688 66.1925 28.1455C65.4142 27.2718 64.4422 26.8278 63.3012 26.8278C62.4877 26.8278 61.7376 27.0054 61.0615 27.3535C60.3924 27.7016 59.8113 28.1953 59.3324 28.8275C58.864 29.4491 58.4977 30.2021 58.2371 31.0688C57.98 31.9248 57.8533 32.8874 57.8533 33.9281C57.8533 34.9688 57.9836 35.9278 58.2371 36.7768C58.4942 37.6363 58.8605 38.3858 59.3324 39.0074C59.8113 39.6396 60.3924 40.1333 61.0615 40.4814C61.7341 40.8295 62.4877 41.0071 63.3012 41.0071C64.4422 41.0071 65.4142 40.5667 66.1925 39.7035C66.4812 39.3803 66.7383 39.0074 66.9567 38.5811V40.5631C66.9567 40.6732 67.0447 40.762 67.1539 40.762H70.5875L70.7847 40.7372C70.8586 40.7265 70.922 40.6768 70.9467 40.6022L71.0911 40.1582C71.1122 40.0978 71.1016 40.0303 71.0629 39.9806C71.0241 39.9309 70.9678 39.8989 70.9044 39.8989V39.8882ZM66.9602 33.9245C66.9602 34.8658 66.8721 35.7254 66.6996 36.4855C66.5305 37.2314 66.2805 37.8743 65.9636 38.3964C65.6537 38.9008 65.2769 39.3022 64.8472 39.5828C64.4317 39.8527 63.9527 39.9877 63.428 39.9877C62.7589 39.9877 62.2201 39.4833 61.7764 38.4462C61.2939 37.2953 61.0474 35.7751 61.0474 33.9245C61.0474 32.074 61.2939 30.5502 61.7764 29.3994C62.2025 28.3622 62.7448 27.8614 63.428 27.8614C63.9562 27.8614 64.4352 27.9964 64.8507 28.2592C65.2804 28.5292 65.6537 28.927 65.9636 29.4384C66.284 29.9677 66.5305 30.6177 66.6996 31.3636C66.8721 32.1237 66.9602 32.9833 66.9602 33.9245Z" fill="#75787B"/>
<path d="M82.5609 28.7423C81.5573 27.3712 80.0183 26.675 77.9863 26.675C76.0776 26.675 74.588 27.3002 73.5597 28.5363C72.5489 29.751 72.0348 31.5057 72.0348 33.7505C72.0348 33.8926 72.0383 34.0311 72.0489 34.1696C72.0559 34.2939 72.0594 34.4183 72.0594 34.5426C72.0594 34.6172 72.0665 34.6776 72.0841 34.7308C72.0841 34.8196 72.0911 34.8942 72.1017 34.9617C72.1087 35.0043 72.1087 35.047 72.1123 35.1358C72.3341 36.997 73.0385 38.4391 74.2006 39.4265C75.3557 40.4068 76.9404 40.9041 78.9055 40.9041C79.8176 40.9041 80.6663 40.6342 81.434 40.1049C82.1911 39.5828 82.8039 38.8404 83.2406 37.9169L83.4202 37.6186C83.4484 37.5724 83.4554 37.5191 83.4413 37.4658C83.4272 37.4125 83.392 37.3699 83.3462 37.3451L82.7616 37.0183C82.7123 36.9934 82.6595 36.9863 82.6067 37.0041C82.5539 37.0218 82.5116 37.0609 82.4905 37.1106L82.4024 37.306C82.0256 38.1442 81.5185 38.8014 80.8987 39.2524C80.2895 39.6964 79.6204 39.9202 78.909 39.9202C77.775 39.9202 76.9193 39.494 76.2959 38.6131C75.648 37.7003 75.2817 36.3292 75.2043 34.5497V34.3756H83.7442C83.797 34.3756 83.8463 34.3543 83.885 34.3153C83.9203 34.2762 83.9414 34.2265 83.9414 34.1732V33.9743C83.9062 31.7081 83.4413 29.9499 82.5644 28.7494L82.5609 28.7423ZM75.2043 33.4308C75.2324 31.5021 75.5036 30.0245 76.0142 29.0371C76.5002 28.1136 77.1482 27.6625 78.0004 27.6625C78.9759 27.6625 79.7119 28.1811 80.2472 29.2431C80.7121 30.2305 80.9621 31.6371 80.9903 33.4308H75.2043Z" fill="#75787B"/>
<path d="M90.3156 39.9131H89.9986C89.9388 39.9131 89.8824 39.8989 89.8226 39.8634C89.812 39.8563 89.7662 39.8243 89.7099 39.6893C89.65 39.5402 89.6007 39.3128 89.5655 39.0216C89.5267 38.7161 89.5056 38.297 89.5056 37.7855V26.945C89.5056 26.8349 89.4176 26.7461 89.3084 26.7461H85.9453C85.9453 26.7461 85.9171 26.7461 85.8995 26.7496L85.7938 26.7745C85.7586 26.7816 85.7234 26.8029 85.6987 26.8313L85.3184 27.2256C85.2621 27.2824 85.248 27.3677 85.2797 27.4387C85.3114 27.5133 85.3818 27.5595 85.4593 27.5595H86.0685C86.1284 27.5595 86.1742 27.5701 86.2164 27.5985C86.2164 27.5985 86.2763 27.6376 86.3467 27.8046C86.4136 27.9573 86.4629 28.1846 86.5017 28.4759C86.5404 28.792 86.5615 29.2076 86.5615 29.7155V37.7819C86.5615 38.2863 86.5404 38.7054 86.5017 39.018C86.4559 39.3803 86.3925 39.5721 86.3502 39.6716C86.2763 39.8314 86.2235 39.8669 86.2199 39.8705C86.1742 39.8989 86.1249 39.9131 86.0544 39.9131L85.7128 39.938C85.6107 39.9451 85.5297 40.0303 85.5297 40.1333V40.3322C85.5297 40.3322 85.5297 40.3606 85.5332 40.3784L85.5579 40.485C85.5649 40.5205 85.5825 40.5525 85.6072 40.5773L85.7199 40.6945C85.7551 40.7336 85.8079 40.7549 85.8607 40.7549H90.0902C90.0902 40.7549 90.1184 40.7549 90.136 40.7514L90.2416 40.7265C90.2768 40.7194 90.3121 40.6981 90.3367 40.6697L90.4494 40.5525C90.4846 40.5169 90.5058 40.4672 90.5058 40.4139V40.112C90.5058 40.0019 90.4177 39.9131 90.3085 39.9131H90.3156Z" fill="#75787B"/>
<path d="M87.8328 25.5065C87.8891 25.51 87.942 25.5136 87.9948 25.5136C88.4949 25.5136 88.9421 25.336 89.3189 24.9914C89.7591 24.6114 89.9986 24.1319 90.0409 23.5707C90.0796 23.013 89.907 22.5051 89.5302 22.0611C89.1675 21.6348 88.6956 21.3969 88.1321 21.3542C87.5652 21.3152 87.0651 21.4892 86.6531 21.8622C86.2093 22.228 85.9628 22.704 85.9206 23.2758C85.8783 23.8477 86.0509 24.3521 86.4241 24.7677C86.7904 25.2152 87.2623 25.4638 87.8258 25.5029L87.8328 25.5065Z" fill="#75787B"/>
<path d="M104.381 39.2986C104.318 39.2098 104.198 39.1921 104.11 39.2524L103.951 39.3626C103.817 39.4585 103.656 39.5437 103.476 39.6112C103.342 39.6609 103.198 39.6858 103.046 39.6858C102.828 39.6858 102.743 39.6183 102.701 39.5721C102.687 39.5579 102.581 39.4194 102.581 38.8688V31.5447C102.581 28.213 100.831 26.5223 97.38 26.5223C96.2636 26.5223 95.2635 26.7923 94.4042 27.3215C93.5273 27.8614 92.8793 28.7103 92.4814 29.8327C92.3405 30.1808 92.2983 30.5538 92.3581 30.948C92.418 31.3423 92.58 31.6975 92.8476 32.0065C93.228 32.4292 93.6999 32.6636 94.2528 32.7062C94.8057 32.7417 95.3093 32.5784 95.7565 32.209C96.1756 31.8253 96.408 31.3423 96.4503 30.7669C96.4925 30.1879 96.3164 29.6764 95.9361 29.2502C95.6156 28.8879 95.2212 28.6606 94.7599 28.5682C94.7317 28.5611 94.7035 28.5576 94.6754 28.554C94.9254 28.3373 95.1966 28.1491 95.4818 27.9928C96.077 27.6696 96.7144 27.5062 97.3835 27.5062C98.1019 27.5062 98.6301 27.7193 98.9964 28.1562C99.4225 28.6748 99.6409 29.4882 99.6409 30.5751C99.6409 31.662 99.3697 32.5286 98.8379 33.0152C98.2921 33.5125 97.3765 33.7647 96.1087 33.7647C95.429 33.7647 94.8021 33.8642 94.2387 34.0595C93.6717 34.2549 93.1752 34.5355 92.7631 34.8871C92.3441 35.2459 92.0165 35.6828 91.7876 36.1871C91.5623 36.6879 91.446 37.2492 91.446 37.8459C91.446 38.812 91.8369 39.5508 92.5976 40.0303C92.9991 40.3074 93.5097 40.5098 94.1119 40.6342C94.6895 40.7549 95.3691 40.8153 96.1298 40.8153C97.2074 40.8153 98.1442 40.4566 98.9189 39.7462C99.2253 39.4656 99.4929 39.1388 99.7148 38.7694C99.7395 38.8653 99.7641 38.9541 99.7958 39.0322C99.9296 39.5686 100.183 40.009 100.542 40.3358C100.976 40.7549 101.645 40.9645 102.529 40.9645C103.018 40.9645 103.43 40.897 103.754 40.762C104.131 40.6093 104.416 40.4388 104.631 40.2434L104.761 40.1227C104.835 40.0552 104.846 39.9415 104.786 39.8598L104.374 39.288L104.381 39.2986ZM99.6409 35.9669C99.5352 37.1959 99.1654 38.1762 98.5492 38.883C97.9434 39.5757 97.1828 39.9131 96.2284 39.9131C95.5769 39.9131 95.1121 39.732 94.8127 39.359C94.531 39.0216 94.3901 38.4923 94.3901 37.7819C94.3901 36.8265 94.5838 36.0557 94.9606 35.4909C95.3163 34.9582 95.7459 34.7131 96.3059 34.7131C97.4363 34.7131 98.3308 34.5213 98.9718 34.1377C99.2288 33.9849 99.4542 33.7967 99.6444 33.5729V35.9669H99.6409Z" fill="#75787B"/>
<path d="M115.013 33.8038L115.006 33.7967C114.104 33.0259 112.805 32.5109 111.149 32.2729C110.273 32.1521 109.596 31.9106 109.135 31.559C108.712 31.2357 108.515 30.8699 108.515 30.4152C108.515 29.4846 108.72 28.7352 109.124 28.1882C109.508 27.6696 109.998 27.4174 110.625 27.4174C110.956 27.4174 111.273 27.4494 111.572 27.5133C111.491 27.5666 111.414 27.627 111.343 27.6944C110.924 28.0781 110.692 28.5576 110.649 29.1223C110.607 29.6906 110.773 30.195 111.142 30.6283C111.519 31.051 111.995 31.2855 112.558 31.3281C113.114 31.3671 113.622 31.2002 114.051 30.8308C114.47 30.4472 114.703 29.9677 114.745 29.4029C114.784 28.8417 114.608 28.3231 114.248 27.9218C114.178 27.8294 114.094 27.7442 114.037 27.7016C113.555 27.2327 113.012 26.8988 112.428 26.707C111.861 26.5223 111.255 26.4264 110.625 26.4264C109.899 26.4264 109.23 26.5259 108.628 26.7177C108.022 26.913 107.49 27.1936 107.043 27.5524C106.589 27.9182 106.233 28.3693 105.99 28.8914C105.747 29.4136 105.62 29.9925 105.62 30.607C105.62 31.8076 106.068 32.8234 106.952 33.6226C107.811 34.4005 109.012 34.8907 110.523 35.0825C111.452 35.2068 112.181 35.4519 112.688 35.8177C113.153 36.1516 113.368 36.5175 113.368 36.9686C113.368 37.8778 113.146 38.6095 112.71 39.1423C112.283 39.6609 111.727 39.9131 111.012 39.9131C110.037 39.9131 109.121 39.6396 108.29 39.0926C108.547 39.0074 108.79 38.8688 109.012 38.677C109.434 38.3112 109.67 37.8388 109.713 37.2669C109.751 36.6986 109.589 36.1942 109.227 35.768C108.846 35.324 108.374 35.0789 107.818 35.0363C107.262 34.9972 106.758 35.1713 106.311 35.5584C105.909 35.9243 105.68 36.386 105.631 36.9295C105.582 37.48 105.726 37.9738 106.057 38.3822C106.614 39.1743 107.339 39.8066 108.209 40.2612C109.079 40.7194 110.023 40.9503 111.016 40.9503C111.787 40.9503 112.502 40.8544 113.15 40.6626C113.808 40.4672 114.379 40.1831 114.851 39.8172C115.326 39.4478 115.703 39.0003 115.963 38.4852C116.228 37.9666 116.361 37.3806 116.361 36.7448C116.361 35.6082 115.904 34.6207 115.006 33.8038H115.013Z" fill="#75787B"/>
<path d="M5.05351 18.5624H4.73656C4.67317 18.5624 4.62035 18.5482 4.56048 18.5127C4.56048 18.5127 4.50414 18.4736 4.44779 18.3386C4.38792 18.1895 4.33862 17.9657 4.3034 17.6709C4.26467 17.3654 4.24354 16.9463 4.24354 16.4348V5.5943C4.24354 5.48419 4.1555 5.39539 4.04633 5.39539H0.686698C0.686698 5.39539 0.655003 5.39539 0.640917 5.39895L0.535268 5.42381C0.500052 5.43091 0.464836 5.45222 0.440184 5.47709L0.0528059 5.87135C-0.00354004 5.92818 -0.0176265 6.01343 0.0105465 6.08447C0.0422411 6.15906 0.112674 6.20523 0.190149 6.20523H0.802912C0.862779 6.20523 0.90856 6.21944 0.95082 6.24431C0.95082 6.24431 1.00717 6.28338 1.08112 6.45032C1.14803 6.6066 1.20085 6.83038 1.23607 7.12163C1.27481 7.43776 1.29594 7.85333 1.29594 8.36126V16.4277C1.29594 16.9321 1.27481 17.3512 1.23607 17.6638C1.20085 17.9479 1.14803 18.1753 1.08464 18.3138C1.01069 18.4772 0.954341 18.5091 0.954341 18.5127C0.90856 18.5411 0.859258 18.5553 0.788825 18.5553L0.447228 18.5802C0.345101 18.5873 0.264103 18.6725 0.264103 18.7755V18.9744C0.264103 18.9744 0.264103 19.0029 0.267625 19.0206L0.292276 19.1272C0.29932 19.1627 0.316928 19.1947 0.345101 19.2195L0.457793 19.3367C0.493009 19.3758 0.545833 19.3971 0.598657 19.3971H4.82813C4.82813 19.3971 4.85982 19.3971 4.87391 19.3936L4.97956 19.3687C5.01477 19.3616 5.04999 19.3403 5.07464 19.3154L5.18733 19.1982C5.22255 19.1627 5.24368 19.113 5.24368 19.0597V18.7578C5.24368 18.6477 5.15564 18.5589 5.04647 18.5589L5.05351 18.5624Z" fill="#75787B"/>
<path d="M2.57425 4.15577C2.6306 4.15932 2.68342 4.16287 2.73625 4.16287C3.23632 4.16287 3.68356 3.98528 4.0639 3.64074C4.50058 3.25713 4.74357 2.78117 4.78583 2.21996C4.82457 1.66231 4.65553 1.15438 4.2752 0.71039C3.90895 0.284158 3.44057 0.0461782 2.87359 0.00355492C2.31717 -0.0319644 1.79949 0.14208 1.39451 0.511482C0.950783 0.877331 0.70427 1.35329 0.66201 1.92515C0.619751 2.49701 0.79231 3.00139 1.1656 3.41697C1.53185 3.86451 2.00375 4.11314 2.56721 4.15222L2.57425 4.15577Z" fill="#75787B"/>
<path d="M25.8347 18.5624H25.5177C25.4473 18.5624 25.3874 18.5482 25.3417 18.5198C25.3346 18.5162 25.2818 18.4807 25.2114 18.3244C25.1656 18.225 25.1022 18.0296 25.0599 17.6602C25.0212 17.3441 25.0001 16.9214 25.0001 16.4099V11.114C25.0001 9.31673 24.6162 7.91372 23.8661 6.94404C23.6055 6.58529 23.278 6.29403 22.8941 6.07737C22.5244 5.8678 22.1299 5.71152 21.7179 5.60141C21.3164 5.51261 20.9079 5.46288 20.4994 5.44512C20.1437 5.42736 19.7528 5.45578 19.3338 5.52326C18.8865 5.59785 18.4745 5.76124 18.1047 6.00277C17.7666 6.22299 17.4814 6.43611 17.2595 6.63147C17.0518 6.81617 16.8968 6.9689 16.7665 7.11453C16.7242 7.0506 16.6785 6.99021 16.6327 6.92983C16.3545 6.57464 16.027 6.29048 15.6607 6.07737C15.3015 5.8678 14.9071 5.70796 14.488 5.60141C14.0725 5.51616 13.6534 5.46288 13.2484 5.44512C12.9033 5.42736 12.5124 5.45222 12.0933 5.52326C11.6566 5.59785 11.2481 5.76124 10.8854 5.99567C10.5861 6.18037 10.3325 6.35797 10.1247 6.52846V5.59075C10.1247 5.48064 10.0367 5.39539 9.92751 5.39539H6.54323L6.34602 5.42026C6.24742 5.43446 6.17346 5.51616 6.17346 5.61561V6.00988C6.17346 6.11999 6.2615 6.20879 6.37067 6.20879H6.66297C6.73692 6.20879 6.79679 6.22299 6.83553 6.24786C6.83553 6.24786 6.89187 6.28338 6.96583 6.45387C7.03274 6.6066 7.08204 6.83038 7.12078 7.12519C7.15952 7.44131 7.18065 7.85689 7.18065 8.36126V16.4277C7.18065 16.9356 7.15952 17.3512 7.12078 17.6638C7.075 18.0225 7.01161 18.2179 6.96935 18.3173C6.89539 18.4772 6.84257 18.5127 6.83905 18.5162C6.79327 18.5447 6.7334 18.5589 6.66297 18.5589H6.56436C6.56436 18.5589 6.53267 18.5589 6.51858 18.566L6.32137 18.6157C6.23333 18.637 6.17346 18.7152 6.17346 18.8075V19.2018C6.17346 19.3119 6.2615 19.4007 6.37067 19.4007H10.741C10.741 19.4007 10.7692 19.4007 10.7868 19.3971L10.8924 19.3723C10.9347 19.3616 10.9734 19.3367 11.0016 19.3048L11.1143 19.1627C11.1425 19.1272 11.1566 19.0846 11.1566 19.0384V18.7613C11.1566 18.6512 11.0685 18.5624 10.9593 18.5624H10.6142C10.5579 18.5624 10.5086 18.5482 10.4593 18.5198C10.4381 18.5056 10.3853 18.4523 10.329 18.3244C10.2656 18.1824 10.2128 17.955 10.1775 17.6744C10.1388 17.3583 10.1177 16.9427 10.1177 16.4348V8.05579C10.2621 7.81781 10.4205 7.6118 10.5861 7.45196C10.7938 7.25306 10.9734 7.09677 11.1389 6.97601C11.3045 6.85169 11.4735 6.74868 11.6249 6.68475C11.9595 6.56398 12.2553 6.48584 12.5053 6.45742C12.7554 6.42901 12.9737 6.42901 13.1498 6.45742C13.3224 6.48229 13.4632 6.52491 13.5724 6.58174C13.7309 6.66344 13.8083 6.71671 13.833 6.73803C14.1464 7.01508 14.3894 7.49814 14.5584 8.18011C14.738 8.91536 14.8296 9.9028 14.8296 11.1176V16.4135C14.8296 16.9179 14.8085 17.3406 14.7697 17.6638C14.724 18.0332 14.6641 18.2321 14.6183 18.328C14.5549 18.4736 14.5021 18.5091 14.488 18.5198C14.4317 18.5518 14.3788 18.566 14.319 18.566H13.8541C13.7872 18.566 13.7238 18.6015 13.6886 18.6583C13.6534 18.7152 13.6499 18.7897 13.6816 18.8501L13.9034 19.2941C13.9351 19.3616 14.0056 19.4042 14.0795 19.4042H18.3759C18.3759 19.4042 18.4076 19.4042 18.4217 19.4007L18.5273 19.3758C18.5696 19.3652 18.6083 19.3438 18.633 19.3083L18.7457 19.1663C18.7738 19.1307 18.7914 19.0881 18.7914 19.0419V18.7649C18.7914 18.6548 18.7034 18.566 18.5942 18.566H18.2773C18.2068 18.566 18.1505 18.5518 18.1047 18.5234C18.1047 18.5234 18.0484 18.4878 17.9779 18.328C17.9322 18.2285 17.8723 18.0332 17.8265 17.6602C17.7878 17.3406 17.7702 16.9214 17.7702 16.4099V11.114C17.7702 10.1941 17.668 9.37001 17.4638 8.65962L17.3053 8.1517C17.4427 7.91372 17.5941 7.7077 17.7561 7.53721C17.9639 7.31699 18.154 7.14295 18.3266 7.01863C18.5062 6.87655 18.6928 6.75934 18.8513 6.68475C19.693 6.38994 20.1367 6.39349 20.3656 6.45032C20.8199 6.56043 21.0065 6.67764 21.0699 6.72737C21.3693 7.00087 21.6052 7.49104 21.7707 8.17656C21.9503 8.90826 22.0419 9.8957 22.0419 11.114V16.4099C22.0419 16.9143 22.0243 17.337 21.9855 17.6638C21.9433 18.0332 21.8799 18.2285 21.8376 18.328C21.7672 18.4878 21.7109 18.5234 21.7109 18.5269C21.6686 18.5553 21.6158 18.566 21.5453 18.566H20.9185C20.8375 18.566 20.7671 18.6157 20.7389 18.6903C20.7072 18.7649 20.7248 18.8501 20.7847 18.907L21.2354 19.351C21.2707 19.3865 21.32 19.4078 21.3728 19.4078H25.6023C25.6023 19.4078 25.6304 19.4078 25.648 19.4042L25.7537 19.3794C25.7889 19.3723 25.8241 19.351 25.8488 19.3261L25.9615 19.2089C25.9967 19.1734 26.0178 19.1236 26.0178 19.0703V18.7684C26.0178 18.6583 25.9298 18.5695 25.8206 18.5695L25.8347 18.5624Z" fill="#75787B"/>
<path d="M38.5372 7.67929C38.0195 7.05414 37.3891 6.56043 36.6601 6.21589C35.9312 5.87135 35.1177 5.69375 34.2478 5.69375C33.2759 5.69375 32.4624 6.09512 31.8285 6.8872C31.6489 7.12163 31.4833 7.39158 31.3284 7.69349V5.76834C31.3284 5.65823 31.2404 5.56944 31.1312 5.56944H27.6976L27.5004 5.5943C27.4018 5.60851 27.3278 5.6902 27.3278 5.78965V5.89621L27.2046 6.1484C27.1764 6.20878 27.1799 6.28337 27.2151 6.34021C27.2504 6.39704 27.3137 6.43256 27.3807 6.43256H27.842C27.93 6.43256 28.0357 6.58529 28.1237 6.82682C28.2646 7.22109 28.335 7.92082 28.335 8.90825V21.2548C28.335 21.7627 28.3139 22.1783 28.2751 22.4909C28.2399 22.7821 28.1871 23.013 28.1308 23.1586C28.0744 23.3007 28.0216 23.3327 28.0145 23.3362C27.9617 23.3682 27.9054 23.3824 27.8455 23.3824H27.5039C27.3947 23.3824 27.3067 23.4712 27.3067 23.5813V23.7802C27.3067 23.8299 27.3137 23.8797 27.3314 23.9258V24.0537C27.3314 24.1638 27.4194 24.2526 27.5286 24.2526H32.0398C32.1032 24.2526 32.1595 24.2242 32.1982 24.1709L32.575 23.7127C32.6244 23.6523 32.6349 23.5706 32.6032 23.5032C32.5715 23.4321 32.5011 23.3895 32.4236 23.3895H31.7932C31.7334 23.3895 31.6876 23.3753 31.6418 23.3469C31.6418 23.3469 31.5925 23.3149 31.5326 23.1657C31.4728 23.0165 31.4235 22.7928 31.3883 22.5015C31.3495 22.1854 31.3284 21.7663 31.3284 21.2619V17.8591C31.4833 18.1646 31.6524 18.4417 31.8355 18.6903C32.4659 19.4753 33.2794 19.8766 34.2513 19.8766C35.1247 19.8766 35.9347 19.7026 36.6637 19.3581C37.3926 19.01 38.023 18.5198 38.5407 17.8911C39.0548 17.2695 39.4563 16.5165 39.7415 15.6463C40.0233 14.7867 40.1677 13.8206 40.1677 12.7763C40.1677 11.732 40.0233 10.7695 39.7415 9.91701C39.4563 9.05744 39.0548 8.30798 38.5442 7.68639L38.5372 7.67929ZM36.9982 12.7692C36.9982 13.7105 36.9207 14.5736 36.7728 15.3408C36.6249 16.0938 36.4136 16.7403 36.146 17.266C35.8889 17.7703 35.579 18.1682 35.2233 18.4452C34.8888 18.7045 34.5295 18.8324 34.1246 18.8324C33.2759 18.8324 32.6243 18.3919 32.1419 17.4862C31.6031 16.4455 31.3284 14.8577 31.3284 12.7692C31.3284 10.6807 31.6031 9.11072 32.1384 8.05579C32.6244 7.14649 33.2759 6.7025 34.1246 6.7025C34.5295 6.7025 34.8888 6.83037 35.2233 7.08966C35.5755 7.36671 35.8854 7.76098 36.146 8.26891C36.4136 8.79459 36.6249 9.4446 36.7728 10.2047C36.9243 10.979 36.9982 11.8422 36.9982 12.7657V12.7692Z" fill="#75787B"/>
<path d="M50.4614 6.0454C50.4614 6.0454 50.4614 6.0454 50.4614 6.04184C50.2043 5.76124 49.8909 5.55878 49.5387 5.44157C49.176 5.31725 48.7992 5.30659 48.4541 5.4025C47.711 5.55168 47.0208 6.00988 46.4009 6.76289C46.0629 7.17136 45.7671 7.64732 45.51 8.18721V5.61561C45.51 5.5055 45.4219 5.4167 45.3128 5.4167H41.9285L41.7313 5.44157C41.6327 5.45222 41.5587 5.53747 41.5587 5.63692V6.03119C41.5587 6.1413 41.6468 6.2301 41.7559 6.2301H42.0729C42.1327 6.2301 42.1891 6.2443 42.2454 6.27627C42.263 6.28693 42.3088 6.33665 42.3581 6.46097C42.418 6.62081 42.4708 6.85169 42.506 7.1465C42.5448 7.46262 42.5659 7.87819 42.5659 8.38612V16.378C42.5659 16.8859 42.5448 17.3015 42.506 17.6141C42.4673 17.9124 42.418 18.1433 42.3581 18.2996C42.3088 18.4274 42.256 18.4949 42.2278 18.5162C42.2032 18.534 42.1609 18.5589 42.0729 18.5589H41.9496C41.8897 18.5589 41.8299 18.5873 41.7947 18.637L41.6151 18.8927C41.5939 18.9247 41.5834 18.9638 41.5834 18.9993V19.1982C41.5834 19.3083 41.6714 19.3971 41.7806 19.3971H46.1791C46.2319 19.3971 46.2812 19.3758 46.3164 19.3403L46.7566 18.8963C46.813 18.8395 46.8306 18.7542 46.7989 18.6796C46.7672 18.605 46.6968 18.5589 46.6193 18.5589H45.9995C45.9502 18.5589 45.9079 18.5447 45.8657 18.5162C45.8551 18.5091 45.7952 18.4594 45.7213 18.2854C45.6544 18.1326 45.6051 17.9089 45.5663 17.6176C45.5276 17.3015 45.5065 16.8859 45.5065 16.378V10.6807C45.5663 10.5137 45.6227 10.3432 45.6755 10.1692C45.7213 10.0129 45.753 9.91701 45.7741 9.87083C45.9537 9.43749 46.1896 9.05033 46.4784 8.72C46.6475 8.5282 46.8271 8.35771 47.0172 8.21208C47.0982 8.41099 47.2109 8.59569 47.3518 8.76973C47.7286 9.19241 48.2075 9.42684 48.7675 9.46946C49.3274 9.51208 49.831 9.34514 50.2606 8.97219C50.6797 8.58858 50.9121 8.11617 50.9544 7.55852C50.9967 7.00442 50.8347 6.49649 50.4719 6.04895L50.4649 6.03829L50.4614 6.0454Z" fill="#75787B"/>
<path d="M73.4329 8.17656C73.6125 8.91181 73.704 9.89924 73.704 11.114V16.4099C73.704 16.9179 73.6829 17.337 73.6477 17.6638C73.6054 18.0367 73.542 18.2321 73.4998 18.3315C73.4294 18.4914 73.3765 18.5269 73.373 18.5269C73.3307 18.5518 73.2744 18.566 73.2075 18.566H72.5806C72.4996 18.566 72.4292 18.6157 72.401 18.6903C72.3693 18.7649 72.387 18.8501 72.4433 18.907L72.8905 19.3509C72.9258 19.3865 72.9751 19.4078 73.0279 19.4078H77.2574C77.2574 19.4078 77.2855 19.4078 77.3031 19.4042L77.4088 19.3794C77.444 19.3723 77.4792 19.3509 77.5039 19.3261L77.6166 19.2089C77.6518 19.1734 77.6729 19.1236 77.6729 19.0703V18.7684C77.6729 18.6583 77.5849 18.5695 77.4757 18.5695H77.1588C77.0883 18.5695 77.0285 18.5553 76.9827 18.5269C76.9827 18.5269 76.9263 18.4914 76.8524 18.328C76.8066 18.2285 76.7432 18.0332 76.7009 17.6638C76.6622 17.3477 76.6411 16.925 76.6411 16.4135V11.1176C76.6411 9.32028 76.2572 7.91726 75.5071 6.94759C75.2465 6.58884 74.919 6.29758 74.5351 6.08091C74.1654 5.8749 73.7745 5.71506 73.3589 5.60495C72.9575 5.51615 72.5454 5.46643 72.1404 5.44867C71.7848 5.43091 71.3938 5.45932 70.9748 5.52681C70.5311 5.6014 70.1155 5.76479 69.7493 6.00632C69.4112 6.22654 69.1259 6.43966 68.9041 6.63502C68.6963 6.81972 68.5413 6.97245 68.411 7.11808C68.3688 7.05414 68.323 6.99376 68.2772 6.93338C67.999 6.58174 67.6715 6.29403 67.3052 6.08091C66.9425 5.87135 66.5516 5.71151 66.1325 5.60495C65.717 5.51971 65.2979 5.46643 64.8929 5.44867C64.5408 5.43091 64.1499 5.45932 63.7378 5.52681C63.3012 5.6014 62.8927 5.76479 62.5299 5.99922C62.2271 6.18392 61.9735 6.36152 61.7693 6.53201V5.5943C61.7693 5.48419 61.6777 5.39894 61.572 5.39894H58.1878L57.9906 5.4238C57.8919 5.43801 57.818 5.51971 57.818 5.61916V6.01343C57.818 6.12354 57.906 6.21233 58.0152 6.21233H58.3075C58.3815 6.21233 58.4413 6.22654 58.4801 6.25141C58.4801 6.25141 58.5364 6.28693 58.6104 6.45742C58.6773 6.61015 58.7301 6.84103 58.7653 7.12518C58.804 7.4413 58.8252 7.85688 58.8252 8.36481V16.4313C58.8252 16.9356 58.804 17.3548 58.7653 17.6673C58.7301 17.955 58.6773 18.1788 58.6139 18.3209C58.547 18.4701 58.4941 18.5127 58.4941 18.5127C58.4378 18.534 58.1878 18.5802 57.987 18.6121C57.892 18.6264 57.818 18.708 57.818 18.8075V19.2018C57.818 19.3119 57.906 19.4007 58.0152 19.4007H62.3855C62.3855 19.4007 62.4137 19.4007 62.4313 19.3971L62.537 19.3723C62.5792 19.3616 62.618 19.3403 62.6426 19.3048L62.7553 19.1627C62.7835 19.1272 62.8011 19.0846 62.8011 19.0384V18.7613C62.8011 18.6512 62.7131 18.5624 62.6039 18.5624H62.2588C62.1989 18.5624 62.1531 18.5482 62.1038 18.5198C62.0968 18.5162 62.0439 18.4772 61.9735 18.3209C61.9101 18.1788 61.8573 17.9515 61.8221 17.6673C61.7833 17.3512 61.7622 16.9356 61.7622 16.4313V8.05224C61.9066 7.81426 62.0651 7.6118 62.2306 7.44841C62.4384 7.2495 62.618 7.09321 62.787 6.97245C62.949 6.84813 63.1216 6.74512 63.273 6.68119C63.6075 6.56042 63.9034 6.48228 64.1534 6.45387C64.4034 6.42545 64.6218 6.42545 64.7979 6.45387C64.9704 6.47873 65.1113 6.52135 65.2204 6.57818C65.3789 6.65988 65.4564 6.71316 65.481 6.73447C65.7945 7.01152 66.0375 7.49458 66.2065 8.17656C66.3861 8.90825 66.4777 9.89924 66.4777 11.114V16.4099C66.4777 16.9179 66.4565 17.337 66.4178 17.6602C66.372 18.0296 66.3121 18.2285 66.2664 18.3244C66.203 18.4701 66.1502 18.5056 66.1361 18.5162C66.0797 18.5482 66.0269 18.5624 65.967 18.5624H65.5022C65.4353 18.5624 65.3719 18.5979 65.3367 18.6548C65.3014 18.7116 65.2979 18.7862 65.3296 18.8466L65.5515 19.2906C65.5832 19.3581 65.6536 19.4007 65.7276 19.4007H70.0239C70.0239 19.4007 70.0521 19.4007 70.0697 19.3971L70.1754 19.3723C70.2176 19.3616 70.2564 19.3403 70.281 19.3048L70.3937 19.1627C70.4219 19.1272 70.4395 19.0846 70.4395 19.0384V18.7613C70.4395 18.6512 70.3515 18.5624 70.2423 18.5624H69.9253C69.8549 18.5624 69.7986 18.5482 69.7528 18.5198C69.7528 18.5198 69.6964 18.4843 69.626 18.3209C69.5837 18.2214 69.5203 18.0296 69.4746 17.6567C69.4358 17.337 69.4182 16.9179 69.4182 16.4064V11.1105C69.4182 10.1905 69.3161 9.36645 69.1118 8.65607L68.9534 8.14814C69.0907 7.91016 69.2421 7.70415 69.4077 7.53365C69.6154 7.31699 69.8056 7.14294 69.9746 7.01507C70.1542 6.87299 70.3409 6.75578 70.4994 6.68119C71.3375 6.38638 71.7848 6.38993 72.0137 6.44676C72.4679 6.55687 72.6546 6.67409 72.718 6.72381C73.0173 7.00086 73.2533 7.48748 73.4188 8.173L73.4329 8.17656Z" fill="#75787B"/>
<path d="M81.2544 4.15577C81.3108 4.15932 81.3636 4.16287 81.4164 4.16287C81.9165 4.16287 82.3638 3.98528 82.7441 3.64074C83.1808 3.25713 83.4238 2.78117 83.466 2.21996C83.5048 1.66231 83.3322 1.15438 82.9554 0.71039C82.5927 0.284158 82.1208 0.0461782 81.5573 0.00355492C80.9938 -0.0319644 80.4832 0.14208 80.0782 0.511482C79.6345 0.877331 79.388 1.35329 79.3457 1.92515C79.3035 2.49701 79.476 3.00139 79.8493 3.41697C80.2156 3.86451 80.6875 4.11314 81.2509 4.15222L81.2544 4.15577Z" fill="#75787B"/>
<path d="M78.8772 6.21234H79.49C79.5499 6.21234 79.5957 6.22299 79.6379 6.25141C79.645 6.25496 79.6978 6.29403 79.7682 6.45742C79.8351 6.61016 79.888 6.83748 79.9232 7.12874C79.9619 7.44486 79.983 7.86044 79.983 8.36836V16.4348C79.983 16.9392 79.9619 17.3583 79.9232 17.6709C79.8774 18.0296 79.814 18.225 79.7717 18.3209C79.6978 18.4843 79.645 18.5162 79.6414 18.5198C79.5957 18.5482 79.5464 18.5624 79.4759 18.5624L79.1343 18.5873C79.0322 18.5944 78.9512 18.6796 78.9512 18.7826V18.9816C78.9512 18.9816 78.9512 19.01 78.9547 19.0277L78.9794 19.1343C78.9864 19.1698 79.004 19.2018 79.0322 19.2266L79.1449 19.3438C79.1801 19.3829 79.2329 19.4042 79.2858 19.4042H83.5152C83.5152 19.4042 83.5434 19.4042 83.561 19.4007L83.6667 19.3758C83.7019 19.3687 83.7371 19.3474 83.7617 19.3225L83.8744 19.2053C83.9096 19.1698 83.9308 19.1201 83.9308 19.0668V18.7649C83.9308 18.6548 83.8427 18.566 83.7336 18.566H83.4166C83.3532 18.566 83.3004 18.5518 83.2405 18.5162C83.2335 18.5127 83.1842 18.4772 83.1278 18.3422C83.068 18.193 83.0187 17.9657 82.9835 17.6744C82.9447 17.3654 82.9236 16.9498 82.9236 16.4384V5.5943C82.9236 5.48419 82.8356 5.39539 82.7264 5.39539H79.3668C79.3668 5.39539 79.3386 5.39539 79.321 5.39895L79.2153 5.42381C79.1801 5.43091 79.1449 5.45222 79.1202 5.47709L78.7329 5.87135C78.6765 5.92818 78.6624 6.01343 78.6906 6.08447C78.7223 6.15906 78.7927 6.20523 78.8702 6.20523L78.8772 6.21234Z" fill="#75787B"/>
<path d="M91.8721 6.45387C92.0446 6.47873 92.1855 6.52136 92.2947 6.57819C92.3721 6.61726 92.4355 6.65278 92.4919 6.6883L92.5588 6.75934C92.8722 7.03284 93.1152 7.51235 93.2807 8.18721C93.4603 8.91181 93.5519 9.8957 93.5519 11.1105V16.4064C93.5519 16.9179 93.5343 17.337 93.4955 17.6567C93.4498 18.0296 93.3899 18.225 93.3476 18.3244C93.2772 18.4843 93.2244 18.5198 93.2208 18.5198C93.1751 18.5482 93.1222 18.5624 93.0413 18.5624L92.6997 18.5873C92.5975 18.5944 92.5165 18.6796 92.5165 18.7826V19.1023C92.5165 19.1769 92.5588 19.2444 92.6222 19.2799L92.8194 19.3829C92.8476 19.3971 92.8793 19.4042 92.9074 19.4042H97.1087C97.1087 19.4042 97.1404 19.4042 97.1545 19.4007L97.2601 19.3758C97.2954 19.3687 97.3271 19.351 97.3552 19.3225L97.4714 19.2053C97.5067 19.1698 97.5278 19.1165 97.5278 19.0668V18.7649C97.5278 18.6548 97.4398 18.566 97.3306 18.566H97.0101C96.9397 18.566 96.8798 18.5518 96.834 18.5234C96.834 18.5234 96.7777 18.4878 96.7037 18.328C96.658 18.2285 96.5946 18.0296 96.5523 17.6638C96.5136 17.3477 96.4924 16.925 96.4924 16.4135V11.1176C96.4924 9.33804 96.1121 7.94213 95.362 6.97956C95.0979 6.5995 94.7668 6.29758 94.383 6.08447C94.0097 5.8749 93.6153 5.72217 93.2068 5.63692C92.8123 5.54813 92.4003 5.49485 91.9883 5.48064C91.6361 5.46288 91.2487 5.48419 90.8297 5.54457C90.3824 5.61206 89.9669 5.76835 89.5936 6.00988C89.3119 6.19103 89.0653 6.36507 88.8646 6.53201V5.59785C88.8646 5.48774 88.773 5.4025 88.6674 5.4025H85.2831C85.2831 5.4025 85.2514 5.4025 85.2373 5.4096L85.0401 5.45933C84.9521 5.48064 84.8922 5.55878 84.8922 5.65113V6.0454C84.8922 6.15551 84.9803 6.24431 85.0894 6.24431H85.4064C85.4662 6.24431 85.5261 6.26206 85.5825 6.29403C85.593 6.30114 85.6458 6.33666 85.7128 6.48584C85.7761 6.62791 85.829 6.85169 85.8642 7.13939C85.9029 7.45552 85.9241 7.87109 85.9241 8.37902V16.4455C85.9241 16.9498 85.9029 17.3725 85.8642 17.6957C85.8184 18.0687 85.755 18.2641 85.7128 18.36C85.6423 18.5127 85.586 18.5482 85.5825 18.5518C85.5261 18.5837 85.4698 18.5979 85.3923 18.5979L85.0753 18.6228C84.9732 18.6299 84.8957 18.7152 84.8957 18.8182V19.0384L84.9204 19.2373C84.931 19.3367 85.0155 19.4113 85.1141 19.4113H89.4633C89.4633 19.4113 89.4915 19.4113 89.5091 19.4078L89.6147 19.3829C89.6499 19.3758 89.6851 19.3545 89.7098 19.3296L90.0972 18.9354C90.1535 18.8785 90.1676 18.7933 90.1394 18.7223C90.1077 18.6477 90.0373 18.6015 89.9598 18.6015H89.3682C89.3048 18.6015 89.2449 18.5873 89.1886 18.5553C89.171 18.5447 89.1252 18.4949 89.0759 18.3706C89.016 18.2143 88.9632 17.987 88.928 17.6886C88.8893 17.3832 88.8681 16.964 88.8681 16.4526V8.07355C89.0125 7.83202 89.1675 7.62601 89.3295 7.46617C89.5231 7.27437 89.7027 7.11453 89.8647 6.99376C90.0267 6.86945 90.1887 6.7842 90.3648 6.72382C90.6923 6.58884 90.9811 6.50715 91.2276 6.47873C91.4776 6.45032 91.696 6.45032 91.8721 6.47873V6.45387Z" fill="#75787B"/>
<path d="M100.18 17.6496C100.659 18.2818 101.24 18.7755 101.909 19.1236C102.581 19.4717 103.335 19.6493 104.149 19.6493C105.29 19.6493 106.262 19.2089 107.04 18.3458C107.329 18.0225 107.586 17.6496 107.807 17.2233V19.2053C107.807 19.3154 107.896 19.4042 108.005 19.4042H111.438L111.636 19.3794C111.713 19.3687 111.776 19.3154 111.797 19.2373L111.938 18.804C111.959 18.7436 111.949 18.6761 111.914 18.6264C111.878 18.5731 111.819 18.5447 111.755 18.5447H111.29C111.227 18.5447 111.171 18.5305 111.114 18.4985C111.107 18.4949 111.058 18.4594 111.002 18.3209C110.942 18.1717 110.892 17.9515 110.857 17.6638C110.818 17.3583 110.797 16.9498 110.797 16.4419V0.202464C110.797 0.0923537 110.709 0.0035553 110.6 0.0035553H107.096C107.022 0.0035553 106.955 0.0461785 106.92 0.110113L106.878 0.191808L106.543 0.529242C106.487 0.586073 106.469 0.671319 106.501 0.74591C106.533 0.820501 106.603 0.866676 106.681 0.866676H107.336C107.392 0.866676 107.441 0.880884 107.487 0.909299C107.487 0.909299 107.536 0.941266 107.596 1.09755C107.656 1.25739 107.709 1.48826 107.744 1.78308C107.783 2.0992 107.804 2.50767 107.804 2.99429V7.91727C107.582 7.49104 107.329 7.11453 107.04 6.79131C106.262 5.91398 105.29 5.46999 104.149 5.46999C103.335 5.46999 102.585 5.64758 101.909 5.99567C101.24 6.34021 100.659 6.83748 100.18 7.46973C99.7113 8.09131 99.345 8.84432 99.088 9.711C98.8309 10.567 98.7041 11.5296 98.7041 12.5703C98.7041 13.611 98.8344 14.57 99.088 15.419C99.345 16.2785 99.7148 17.028 100.18 17.6496ZM101.891 12.5739C101.891 10.7197 102.138 9.19952 102.62 8.05224C103.046 7.01508 103.589 6.51425 104.272 6.51425C104.797 6.51425 105.275 6.64923 105.695 6.91207C106.124 7.18557 106.497 7.58339 106.807 8.09487C107.128 8.6241 107.374 9.27056 107.543 10.02C107.716 10.7801 107.804 11.6397 107.804 12.581C107.804 13.5222 107.716 14.3818 107.543 15.1384C107.374 15.8843 107.124 16.5272 106.807 17.0493C106.497 17.5537 106.124 17.955 105.691 18.2356C105.275 18.5056 104.797 18.6406 104.272 18.6406C103.603 18.6406 103.064 18.1362 102.62 17.099C102.138 15.9482 101.891 14.428 101.891 12.5774V12.5739Z" fill="#75787B"/>
<path d="M123.447 7.02218C122.398 5.76124 120.876 5.12544 118.932 5.12544C116.988 5.12544 115.467 5.76479 114.425 7.02573C113.403 8.26535 112.886 10.0555 112.886 12.3536C112.886 14.6517 113.403 16.4419 114.425 17.678C115.463 18.9389 116.981 19.5783 118.932 19.5783C120.883 19.5783 122.401 18.9389 123.447 17.6815C124.479 16.4419 125 14.6517 125 12.3572C125 10.0626 124.475 8.26891 123.447 7.02928V7.02218ZM116.812 7.54076C117.316 6.52846 118.01 6.03829 118.932 6.03829C119.855 6.03829 120.612 6.57818 121.123 7.69349C121.633 8.77328 121.89 10.3397 121.89 12.3501C121.89 14.3605 121.612 16.0725 121.066 17.1559C120.556 18.1682 119.858 18.6619 118.936 18.6619C117.957 18.6619 117.27 18.1468 116.77 17.0315C116.259 15.9517 116.002 14.3782 116.002 12.3501C116.002 10.3219 116.277 8.62765 116.816 7.54076H116.812Z" fill="#75787B"/>
<path d="M56.7262 39.9131H56.4093C56.3459 39.9131 56.2931 39.8989 56.2332 39.8634C56.2226 39.8563 56.1769 39.8243 56.1205 39.6893C56.0607 39.5401 56.0113 39.3128 55.9761 39.0216C55.9374 38.7161 55.9163 38.297 55.9163 37.7855V5.76834C55.9163 5.65823 55.8282 5.56944 55.7191 5.56944H52.3594C52.3594 5.56944 52.3277 5.56943 52.3136 5.57299L52.208 5.59785C52.1728 5.60495 52.1376 5.62627 52.1129 5.65113L51.7255 6.04539C51.6692 6.10223 51.6551 6.18747 51.6833 6.25851C51.715 6.3331 51.7854 6.37928 51.8629 6.37928H52.4756C52.5355 6.37928 52.5813 6.39348 52.6235 6.41835C52.6235 6.41835 52.6799 6.45742 52.7539 6.62436C52.8208 6.77709 52.8736 7.01152 52.9088 7.29568C52.9475 7.6118 52.9687 8.02737 52.9687 8.5353V37.7819C52.9687 38.2863 52.9475 38.7054 52.9088 39.018C52.8736 39.3022 52.8208 39.5295 52.7574 39.668C52.6834 39.8279 52.6271 39.8634 52.6271 39.8669C52.5813 39.8953 52.532 39.9095 52.4616 39.9095L52.12 39.9344C52.0178 39.9415 51.9368 40.0268 51.9368 40.1298V40.3287C51.9368 40.3287 51.9368 40.3571 51.9404 40.3749L51.965 40.4814C51.972 40.5169 51.9897 40.5489 52.0178 40.5738L52.1305 40.691C52.1657 40.73 52.2186 40.7514 52.2714 40.7514H56.5009C56.5009 40.7514 56.529 40.7514 56.5466 40.7478L56.6523 40.7229C56.6875 40.7158 56.7227 40.6945 56.7474 40.6661L56.8601 40.5489C56.8953 40.5134 56.9164 40.4636 56.9164 40.4104V40.1085C56.9164 39.9983 56.8284 39.9095 56.7192 39.9095L56.7262 39.9131Z" fill="#75787B"/>
<path d="M54.071 4.15577C54.1273 4.15932 54.1801 4.16287 54.2329 4.16287C54.733 4.16287 55.1803 3.98528 55.5571 3.64074C55.9938 3.26068 56.2368 2.78117 56.279 2.21996C56.3177 1.66231 56.1487 1.15438 55.7684 0.71039C55.4057 0.284158 54.9338 0.0461782 54.3703 0.00355492C53.8139 -0.0319644 53.2962 0.14208 52.8912 0.511482C52.4475 0.877331 52.201 1.35329 52.1587 1.92515C52.1165 2.49701 52.289 3.00139 52.6623 3.41697C53.0286 3.86451 53.5005 4.11314 54.0639 4.15222L54.071 4.15577Z" fill="#75787B"/>
</g>
<defs>
<clipPath id="clip0_25_500">
<rect width="125" height="41" fill="white"/>
</clipPath>
</defs>
</svg>
