<svg width="20" height="20" viewBox="0 0 20 20" fill="none" xmlns="http://www.w3.org/2000/svg">
<g clip-path="url(#clip0_2073_513)">
<path d="M10 20C15.5228 20 20 15.5228 20 10C20 4.47715 15.5228 0 10 0C4.47715 0 0 4.47715 0 10C0 15.5228 4.47715 20 10 20Z" fill="#E1B87F"/>
<path d="M3.72993 13.3504C3.46601 13.3504 3.20209 13.2494 3.00003 13.0494C2.59797 12.6473 2.59797 11.9937 3.00003 11.5917L9.28869 5.30301C9.69075 4.90095 10.3444 4.90095 10.7464 5.30301L16.998 11.5546C17.4 11.9566 17.4 12.6102 16.998 13.0123C16.5959 13.4144 15.9423 13.4144 15.5402 13.0123L10.0186 7.49064L4.45983 13.0494C4.25776 13.2515 3.99385 13.3504 3.72993 13.3504Z" fill="white"/>
</g>
<defs>
<clipPath id="clip0_2073_513">
<rect width="20" height="20" fill="white"/>
</clipPath>
</defs>
</svg>
